<svg width="68" height="68" viewBox="0 0 68 68" fill="none" xmlns="http://www.w3.org/2000/svg">
<rect opacity="0.9" width="68" height="68" rx="20" fill="#FFF2F6"/>
<mask id="mask0_3210_38324" style="mask-type:alpha" maskUnits="userSpaceOnUse" x="14" y="14" width="40" height="40">
<rect x="14" y="14" width="40" height="40" fill="#BDBDBD"/>
</mask>
<g mask="url(#mask0_3210_38324)">
<path fill-rule="evenodd" clip-rule="evenodd" d="M19.2732 36.0529L15.9167 46.6195L17.595 48.614L21.4968 50.8082L25.0974 51.7809L32.3595 52.5704H37.6378L44.3723 51.7809L49.8149 49.7639L52.3334 47.1641V45.7178L48.9773 36.0529L48.9772 34.7623L46.7195 33.2818L44.3723 32.1614L42.8004 31.851L29.915 31.4999L23.8021 32.5586L21.4968 33.2818L19.7539 34.7623L19.2732 36.0529Z" fill="white"/>
<path d="M19.2373 35.8016C19.2373 33.4806 25.8148 31.5992 33.9293 31.5992C42.0437 31.5992 48.6221 33.4806 48.6221 35.8016" stroke="black" stroke-width="1.5" stroke-linecap="round" stroke-linejoin="round"/>
<path fill-rule="evenodd" clip-rule="evenodd" d="M42.3993 39.6419C40.1538 39.9293 37.8074 40.2733 34.338 40.2733C30.889 40.2733 29.4646 40.1788 26.4329 39.6419C25.6832 38.3092 25.1272 36.8221 25.1272 35.1841C25.1272 30.0974 29.2508 25.9736 34.338 25.9736C39.4245 25.9736 43.5481 30.0974 43.5481 35.1841C43.5481 36.8012 43.1313 38.321 42.3993 39.6419Z" fill="#FF4081"/>
<path fill-rule="evenodd" clip-rule="evenodd" d="M48.6217 35.8016C48.6217 37.1592 46.116 38.3578 42.2921 39.0771C39.9178 39.524 37.0373 39.7863 33.9293 39.7863C30.8213 39.7863 27.9404 39.524 25.5665 39.0771C21.743 38.3578 19.2369 37.1592 19.2369 35.8016C19.2369 35.8016 15.9167 46.2217 15.9167 46.7392C15.9167 50.0072 23.9813 52.6556 33.9293 52.6556C43.8773 52.6556 51.9418 50.0072 51.9418 46.7392C51.9418 46.4213 48.6217 35.8016 48.6217 35.8016Z" stroke="black" stroke-width="1.5" stroke-linecap="round" stroke-linejoin="round"/>
<path fill-rule="evenodd" clip-rule="evenodd" d="M28.1667 46.0326C29.4192 49.4001 32.323 49.0647 32.323 49.0647V46.0326V43.0009C32.323 43.0009 29.4192 42.6655 28.1667 46.0326Z" stroke="black" stroke-width="1.5" stroke-linecap="round" stroke-linejoin="round"/>
<path d="M39.979 43.8597L38.0986 45.8584H32.3228" stroke="black" stroke-width="1.5" stroke-linecap="round" stroke-linejoin="round"/>
<path d="M39.9624 48.0407L38.0874 45.8586" stroke="black" stroke-width="1.5" stroke-linecap="round" stroke-linejoin="round"/>
<path d="M34.4464 43.7369V47.9807" stroke="black" stroke-width="1.5" stroke-linecap="round" stroke-linejoin="round"/>
<path d="M36.5321 44.1829V47.5345" stroke="black" stroke-width="1.5" stroke-linecap="round" stroke-linejoin="round"/>
<rect x="26.0049" y="16.5438" width="5.47682" height="5.47682" transform="rotate(-15 26.0049 16.5438)" fill="white" stroke="black" stroke-width="1.5" stroke-linecap="round" stroke-linejoin="round"/>
<rect x="36.6611" y="23.957" width="5.47682" height="5.47682" fill="white" stroke="black" stroke-width="1.5" stroke-linecap="round" stroke-linejoin="round"/>
<path fill-rule="evenodd" clip-rule="evenodd" d="M25.8965 38.9724L24.5731 37.649L28.4458 33.7763L32.3185 37.649L30.4031 39.5644" fill="white"/>
<path d="M25.8965 38.9724L24.5731 37.649L28.4458 33.7763L32.3185 37.649L30.4031 39.5644" stroke="black" stroke-width="1.5" stroke-linecap="round" stroke-linejoin="round"/>
<path d="M48.6218 35.8016C48.6218 38.1227 42.0439 39.7644 33.9295 39.7644C25.815 39.7644 19.2371 38.1227 19.2371 35.8016" stroke="black" stroke-width="1.5" stroke-linecap="round" stroke-linejoin="round"/>
</g>
</svg>
