<svg width="68" height="68" viewBox="0 0 68 68" fill="none" xmlns="http://www.w3.org/2000/svg">
<rect opacity="0.9" width="68" height="68" rx="20" fill="#FFF2F6"/>
<mask id="mask0_3210_38319" style="mask-type:alpha" maskUnits="userSpaceOnUse" x="14" y="14" width="40" height="40">
<rect x="14" y="14" width="40" height="40" fill="#BDBDBD"/>
</mask>
<g mask="url(#mask0_3210_38319)">
<path fill-rule="evenodd" clip-rule="evenodd" d="M48.368 37.2789V43.4817L45.4807 47.9965L42.2362 50.2022L38.2783 51.4011L34.7104 50.9704H31.903L27.3514 51.4999L22.8653 51.4011L20.1375 50.2022L17.0382 47.0575L16.167 43.4817L17.0382 41.5112L18.3004 42.1162L18.9804 43.4817V45.5025L21.4049 47.9965L24.824 48.983L26.6264 47.9965L22.445 44.3894L18.9804 39.5402L17.0382 32.1815L16.167 25.3822V22.7343L20.1375 24.0758L26.6264 20.854L27.8745 17.3333L33.7983 21.5769L35.7696 24.0758L42.2362 29.6887L48.792 34.4166L48.368 37.2789Z" fill="white"/>
<path fill-rule="evenodd" clip-rule="evenodd" d="M26.8387 48.7901L24.6675 48.7905C21.4245 48.7914 18.7949 46.163 18.7945 42.9201V42.9008C18.7945 42.2544 18.3558 41.6672 17.722 41.5396C16.8498 41.3638 16.0848 42.0258 16.0852 42.8661V42.9205C16.086 47.6595 19.9288 51.5007 24.6679 51.4999L26.7447 51.4995C28.15 51.499 32.2426 50.745 32.2426 50.745" fill="white"/>
<path d="M26.8387 48.7901L24.6675 48.7905C21.4245 48.7914 18.7949 46.163 18.7945 42.9201V42.9008C18.7945 42.2544 18.3558 41.6672 17.722 41.5396C16.8498 41.3638 16.0848 42.0258 16.0852 42.8661V42.9205C16.086 47.6595 19.9288 51.5007 24.6679 51.4999L26.7447 51.4995C28.15 51.499 32.2426 50.745 32.2426 50.745" stroke="black" stroke-width="1.5" stroke-linecap="round" stroke-linejoin="round"/>
<path fill-rule="evenodd" clip-rule="evenodd" d="M38.5357 28.5378C35.4012 20.8113 27.4445 17.3333 27.4445 17.3333L26.9996 20.9103L19.8362 24.1168L16.2445 22.3463C16.2445 22.3463 13.85 48.6872 35.6804 51.401" fill="white"/>
<path d="M38.5357 28.5378C35.4012 20.8113 27.4445 17.3333 27.4445 17.3333L26.9996 20.9103L19.8362 24.1168L16.2445 22.3463C16.2445 22.3463 13.85 48.6872 35.6804 51.401" stroke="black" stroke-width="1.5" stroke-linecap="round" stroke-linejoin="round"/>
<path fill-rule="evenodd" clip-rule="evenodd" d="M53.5435 24.3042C55.1646 29.421 52.3304 34.8837 47.214 36.5053C42.0967 38.1264 36.634 35.2922 35.0129 30.1754C33.3918 25.0581 36.2255 19.5959 41.3423 17.9748C46.4596 16.3533 51.9219 19.1875 53.5435 24.3042" fill="#FF4081"/>
<path d="M34.1904 28.0272L35.7696 33.0129" stroke="black" stroke-width="1.5" stroke-linecap="round" stroke-linejoin="round"/>
<path fill-rule="evenodd" clip-rule="evenodd" d="M35.708 33.0496L35.1046 33.2351C34.4199 33.4456 33.6886 33.0777 33.4713 32.4126L32.8527 30.517C32.6354 29.8519 33.0149 29.142 33.7001 28.9311L34.3034 28.7455L35.708 33.0496Z" fill="white" stroke="black" stroke-width="1.5" stroke-linecap="round" stroke-linejoin="round"/>
<path fill-rule="evenodd" clip-rule="evenodd" d="M32.1353 33.2209L33.5845 32.7953L32.9042 30.8028L31.455 31.2288C30.8613 31.4028 30.5329 31.9899 30.721 32.5401C30.9091 33.0907 31.5426 33.3954 32.1353 33.2209Z" fill="white" stroke="black" stroke-width="1.5" stroke-linecap="round" stroke-linejoin="round"/>
<path d="M43.3083 17.3333L44.1331 19.9367" stroke="black" stroke-width="1.5" stroke-linecap="round" stroke-linejoin="round"/>
<path d="M41.4812 17.9121L42.3063 20.5155" stroke="black" stroke-width="1.5" stroke-linecap="round" stroke-linejoin="round"/>
<path d="M39.6548 18.4907L40.4799 21.0941" stroke="black" stroke-width="1.5" stroke-linecap="round" stroke-linejoin="round"/>
<path fill-rule="evenodd" clip-rule="evenodd" d="M24.7315 29.2412C24.9339 29.6174 24.7928 30.0872 24.4162 30.2896C24.04 30.4924 23.5706 30.3513 23.3678 29.9747C23.1654 29.5981 23.3065 29.1287 23.6831 28.9263C24.0593 28.7235 24.5287 28.8646 24.7315 29.2412" fill="black"/>
<path fill-rule="evenodd" clip-rule="evenodd" d="M32.5848 25.0153C32.7872 25.3919 32.6461 25.8613 32.2695 26.0637C31.8933 26.2665 31.4239 26.1254 31.2211 25.7488C31.0187 25.3726 31.1598 24.9032 31.5363 24.7004C31.9125 24.498 32.3819 24.6391 32.5848 25.0153" fill="black"/>
<path fill-rule="evenodd" clip-rule="evenodd" d="M31.1206 35.7988L34.6952 33.0143C35.692 32.2382 37.1289 32.4169 37.9054 33.4138C39.5945 35.5821 34.9981 39.5402 34.9981 39.5402" fill="white"/>
<path d="M31.1206 35.7988L34.6952 33.0143C35.692 32.2382 37.1289 32.4169 37.9054 33.4138C39.5945 35.5821 34.9981 39.5402 34.9981 39.5402" stroke="black" stroke-width="1.5" stroke-linecap="round" stroke-linejoin="round"/>
<path fill-rule="evenodd" clip-rule="evenodd" d="M38.8945 42.2096C38.8945 42.2096 39.9032 36.0361 45.7026 37.4574C45.7026 37.4574 45.2929 34.3805 47.8448 34.284C48.3608 34.2644 48.7918 34.6827 48.7918 35.1995V39.701C48.7918 46.1628 43.5534 51.4011 37.0917 51.4011H35.6802" fill="white"/>
<path d="M38.8945 42.2096C38.8945 42.2096 39.9032 36.0361 45.7026 37.4574C45.7026 37.4574 45.2929 34.3805 47.8448 34.284C48.3608 34.2644 48.7918 34.6827 48.7918 35.1995V39.701C48.7918 46.1628 43.5534 51.4011 37.0917 51.4011H35.6802" stroke="black" stroke-width="1.5" stroke-linecap="round" stroke-linejoin="round"/>
</g>
</svg>
