<svg width="68" height="68" viewBox="0 0 68 68" fill="none" xmlns="http://www.w3.org/2000/svg">
<rect opacity="0.9" width="68" height="68" rx="20" fill="#FFF2F6"/>
<mask id="mask0_3210_38320" style="mask-type:alpha" maskUnits="userSpaceOnUse" x="16" y="16" width="40" height="40">
<rect x="16" y="16" width="40" height="40" fill="#BDBDBD"/>
</mask>
<g mask="url(#mask0_3210_38320)">
<path fill-rule="evenodd" clip-rule="evenodd" d="M51.848 50.0643L53.3757 46.2114L53.734 42.6555L53.2653 39.9578L51.848 36.6423L49.971 33.317C49.971 33.317 42.1723 29.469 42.1723 29.3432C42.1723 29.2173 35.2445 26.1715 35.2445 26.1715H31.3158L26.1701 27.6461L26.046 25.8788L26.5311 23.2123L28.5102 20.8954L30.8714 19.7534L33.0152 19.4682L33.7803 18.4432V17.3318L32.5234 16.8333C32.5234 16.8333 31.2924 16.8335 31.0819 16.8335C30.8714 16.8335 29.0716 17.4828 28.5102 17.7419C27.9488 18.001 25.6839 19.183 25.5677 19.4682C25.4515 19.7534 23.6366 22.133 23.6366 22.133C23.6366 22.133 23.1863 24.491 23.1863 24.491L22.968 26.74L23.1863 29.058L22.7941 30.056L20.4711 33.317L19.5811 36.4109V40.2393L20.3143 43.7156L23.6366 51.3752L24.8821 53.5998L25.2855 54.3383H53.2653V52.5587L52.4374 50.9948L51.848 50.7636V50.0643Z" fill="white"/>
<path d="M34.6165 25.8788C27.3312 25.8788 22.899 28.8466 21.0572 32.2237C19.2149 35.6003 16.9965 39.9509 25.2854 54.3384" stroke="black" stroke-width="1.35" stroke-linecap="round" stroke-linejoin="round"/>
<path d="M25.9002 27.47V26.1204C25.9002 22.6164 28.7512 19.7655 32.2552 19.7655H32.3142C33.1235 19.7655 33.7803 19.1095 33.7803 18.2994C33.7803 17.4896 33.1235 16.8333 32.3142 16.8333H32.2552C27.1343 16.8333 22.968 20.9995 22.968 26.1204V29.5913" stroke="black" stroke-width="1.5" stroke-linecap="round" stroke-linejoin="round"/>
<path fill-rule="evenodd" clip-rule="evenodd" d="M46.8468 36.3546C43.6024 36.2533 42.2631 35.9911 39.2534 36.5981C36.1041 35.4379 33.878 32.876 33.0214 29.8784C32.4519 27.887 32.4877 25.7032 33.2583 23.6105C35.1895 18.3684 41.0039 15.6846 46.2459 17.6154C51.4875 19.5466 54.1718 25.3609 52.2411 30.603C51.2563 33.2766 49.2611 35.2848 46.8468 36.3546Z" fill="#FF4081"/>
<path d="M38.5581 20.9851C40.034 22.1737 40.6602 24.2136 39.9688 26.0901C39.2775 27.9666 37.4776 29.1131 35.5833 29.0603" stroke="black" stroke-width="1.5" stroke-linecap="round" stroke-linejoin="round"/>
<path d="M50.3128 25.3152C48.4185 25.2624 46.6182 26.4084 45.9268 28.2849C45.2359 30.1614 45.8625 32.2018 47.3385 33.3904" stroke="black" stroke-width="1.5" stroke-linecap="round" stroke-linejoin="round"/>
<path d="M24.4341 45.4927C24.4341 45.4927 27.0609 54.6358 37.8401 54.6358H40.8657C41.5871 54.6358 42.1723 54.0506 42.1723 53.3293C42.1723 51.3726 40.5863 50.6245 38.6301 50.6245" stroke="black" stroke-width="1.5" stroke-linecap="round" stroke-linejoin="round"/>
<path fill-rule="evenodd" clip-rule="evenodd" d="M52.2775 54.6358H48.6977C48.0911 54.6358 47.5994 54.144 47.5994 53.5374V53.3699C47.5994 51.7748 48.8925 50.4817 50.488 50.4817C52.0827 50.4817 53.3758 51.7748 53.3758 53.3699V53.5374C53.3758 54.144 52.884 54.6358 52.2775 54.6358Z" stroke="black" stroke-width="1.5" stroke-linecap="round" stroke-linejoin="round"/>
<path fill-rule="evenodd" clip-rule="evenodd" d="M33.2346 37.6602L34.7698 32.8505L38.7095 36.1765H47.0596L49.7769 32.9452C49.7769 32.9452 57.0919 41.183 51.8303 50.1187" fill="white"/>
<path d="M33.2346 37.6602L34.7698 32.8505L38.7095 36.1765H47.0596L49.7769 32.9452C49.7769 32.9452 57.0919 41.183 51.8303 50.1187" stroke="black" stroke-width="1.5" stroke-linecap="round" stroke-linejoin="round"/>
<path fill-rule="evenodd" clip-rule="evenodd" d="M39.2661 41.8178C39.2661 42.2802 38.8908 42.6556 38.4283 42.6556C37.9659 42.6556 37.5906 42.2802 37.5906 41.8178C37.5906 41.3553 37.9659 40.98 38.4283 40.98C38.8908 40.98 39.2661 41.3553 39.2661 41.8178" fill="black"/>
<path fill-rule="evenodd" clip-rule="evenodd" d="M48.9177 41.8178C48.9177 42.2802 48.5424 42.6556 48.08 42.6556C47.6175 42.6556 47.2422 42.2802 47.2422 41.8178C47.2422 41.3553 47.6175 40.98 48.08 40.98C48.5424 40.98 48.9177 41.3553 48.9177 41.8178" fill="black"/>
</g>
</svg>
