<svg width="68" height="68" viewBox="0 0 68 68" fill="none" xmlns="http://www.w3.org/2000/svg">
<rect opacity="0.9" width="68" height="68" rx="20" fill="#FFF2F6"/>
<mask id="mask0_3210_38322" style="mask-type:alpha" maskUnits="userSpaceOnUse" x="14" y="14" width="40" height="40">
<rect x="14" y="14" width="40" height="40" fill="#BDBDBD"/>
</mask>
<g mask="url(#mask0_3210_38322)">
<path fill-rule="evenodd" clip-rule="evenodd" d="M43.0039 45.0373C43.0039 49.9867 38.9911 54.0001 34.0409 54.0001C29.0907 54.0001 25.0779 49.9867 25.0779 45.0373C25.0779 40.0874 29.0907 36.074 34.0409 36.074C38.9911 36.074 43.0039 40.0874 43.0039 45.0373" fill="#FF4081"/>
<path fill-rule="evenodd" clip-rule="evenodd" d="M31.548 48.2114L29.9065 47.7903L28.3568 46.5199L27.9604 45.0021C27.9604 45.0021 28.7944 43.4515 28.7944 43.335C28.7944 43.2184 30.5782 42.5883 30.5782 42.5883L31.548 42.4749C31.548 42.4749 31.7004 44.1828 31.7002 44.4167C31.6999 44.6507 31.548 48.2114 31.548 48.2114Z" fill="white"/>
<path fill-rule="evenodd" clip-rule="evenodd" d="M27.7668 45.2266C28.9521 48.4131 31.7001 48.096 31.7001 48.096V45.2266V42.3569C31.7001 42.3569 28.9521 42.0398 27.7668 45.2266Z" stroke="black" stroke-width="1.5" stroke-linecap="round" stroke-linejoin="round"/>
<path d="M38.9456 43.335L37.1664 45.2268H31.7" stroke="black" stroke-width="1.5" stroke-linecap="round" stroke-linejoin="round"/>
<path d="M38.93 47.2915L37.1558 45.2264" stroke="black" stroke-width="1.5" stroke-linecap="round" stroke-linejoin="round"/>
<path d="M33.7097 43.2184V47.2345" stroke="black" stroke-width="1.5" stroke-linecap="round" stroke-linejoin="round"/>
<path d="M35.6838 43.6406V46.8123" stroke="black" stroke-width="1.5" stroke-linecap="round" stroke-linejoin="round"/>
<path fill-rule="evenodd" clip-rule="evenodd" d="M17.2916 35.3531L17.1274 32.3199L17.4676 28.1552L18.6059 24.2874L22.5385 26.2079L25 26.1119L25.1214 24.6305L25.8901 23.0782L25.5731 20.4626L27.1365 15.7363L30.9844 17.5025H37.8692L41.0079 15.8648C41.0079 15.8648 42.4359 19.6146 42.4359 19.6146C42.4359 19.6146 42.4359 21.6009 42.4359 21.6009L42.2856 23.0782L42.6544 24.1307L42.9992 25.7378L43.7028 26.1119L46.4739 25.7378L48.9733 24.2874L49.9781 26.2079L50.4802 30.7221L50.7591 34.5171L50.4802 35.3531H17.2916Z" fill="white"/>
<path fill-rule="evenodd" clip-rule="evenodd" d="M30.8019 21.8254C30.8019 22.1965 30.5011 22.4973 30.13 22.4973C29.7593 22.4973 29.4585 22.1965 29.4585 21.8254C29.4585 21.4542 29.7593 21.1535 30.13 21.1535C30.5011 21.1535 30.8019 21.4542 30.8019 21.8254" fill="black"/>
<path fill-rule="evenodd" clip-rule="evenodd" d="M38.5412 21.8254C38.5412 22.1965 38.2404 22.4973 37.8693 22.4973C37.4985 22.4973 37.1978 22.1965 37.1978 21.8254C37.1978 21.4542 37.4985 21.1535 37.8693 21.1535C38.2404 21.1535 38.5412 21.4542 38.5412 21.8254" fill="black"/>
<path fill-rule="evenodd" clip-rule="evenodd" d="M33.1611 34.5568H30.4815C30.0184 34.5568 29.6431 34.1815 29.6431 33.7184V33.602C29.6431 32.3989 30.6184 31.4236 31.8215 31.4236C33.0246 31.4236 34 32.3989 34 33.602V33.7184C34 34.1815 33.6243 34.5568 33.1611 34.5568Z" stroke="black" stroke-width="1.5" stroke-linecap="round" stroke-linejoin="round"/>
<path fill-rule="evenodd" clip-rule="evenodd" d="M50.5227 34.5568H47.8431C47.3799 34.5568 47.0046 34.1815 47.0046 33.7184V33.602C47.0046 32.3989 47.98 31.4236 49.1831 31.4236C50.3862 31.4236 51.3615 32.3989 51.3615 33.602V33.7184C51.3615 34.1815 50.9858 34.5568 50.5227 34.5568Z" stroke="black" stroke-width="1.5" stroke-linecap="round" stroke-linejoin="round"/>
<path fill-rule="evenodd" clip-rule="evenodd" d="M21.6997 34.5568H19.0201C18.5569 34.5568 18.1816 34.1815 18.1816 33.7184V33.602C18.1816 32.3989 19.157 31.4236 20.3601 31.4236C21.5632 31.4236 22.5385 32.3989 22.5385 33.602V33.7184C22.5385 34.1815 22.1628 34.5568 21.6997 34.5568Z" stroke="black" stroke-width="1.5" stroke-linecap="round" stroke-linejoin="round"/>
<path fill-rule="evenodd" clip-rule="evenodd" d="M39.0613 34.5568H36.3817C35.9185 34.5568 35.5432 34.1815 35.5432 33.7184V33.602C35.5432 32.3989 36.5186 31.4236 37.7217 31.4236C38.9248 31.4236 39.9001 32.3989 39.9001 33.602V33.7184C39.9001 34.1815 39.5244 34.5568 39.0613 34.5568Z" stroke="black" stroke-width="1.5" stroke-linecap="round" stroke-linejoin="round"/>
<path d="M42.432 25.2133C42.4308 24.806 42.4293 24.4824 42.4278 24.4501C42.4331 24.3687 42.4362 24.2839 42.4362 24.1919C42.4362 18.9015 40.8893 15.4591 40.8893 15.4591L37.7104 17.4687H34.0243L34.0247 17.4695C34.0163 17.4695 34.0083 17.4687 33.9999 17.4687H30.3138L27.1349 15.4591C27.1349 15.4591 25.5877 18.9015 25.5877 24.1919C25.5877 24.1942 25.5881 24.1957 25.5881 24.198C25.582 24.2672 25.5774 24.6999 25.5732 25.2068" stroke="black" stroke-width="1.5" stroke-linecap="round" stroke-linejoin="round"/>
<path fill-rule="evenodd" clip-rule="evenodd" d="M22.3879 29.5755C22.3879 29.9466 22.0871 30.2474 21.716 30.2474C21.3452 30.2474 21.0444 29.9466 21.0444 29.5755C21.0444 29.2044 21.3452 28.9036 21.716 28.9036C22.0871 28.9036 22.3879 29.2044 22.3879 29.5755" fill="black"/>
<path fill-rule="evenodd" clip-rule="evenodd" d="M39.7494 29.5755C39.7494 29.9466 39.4486 30.2474 39.0775 30.2474C38.7068 30.2474 38.406 29.9466 38.406 29.5755C38.406 29.2044 38.7068 28.9036 39.0775 28.9036C39.4486 28.9036 39.7494 29.2044 39.7494 29.5755" fill="black"/>
<path fill-rule="evenodd" clip-rule="evenodd" d="M29.5583 29.5755C29.5583 29.9466 29.2575 30.2474 28.8864 30.2474C28.5156 30.2474 28.2148 29.9466 28.2148 29.5755C28.2148 29.2044 28.5156 28.9036 28.8864 28.9036C29.2575 28.9036 29.5583 29.2044 29.5583 29.5755" fill="black"/>
<path fill-rule="evenodd" clip-rule="evenodd" d="M46.9198 29.5755C46.9198 29.9466 46.6191 30.2474 46.2479 30.2474C45.8772 30.2474 45.5764 29.9466 45.5764 29.5755C45.5764 29.2044 45.8772 28.9036 46.2479 28.9036C46.6191 28.9036 46.9198 29.2044 46.9198 29.5755" fill="black"/>
<path d="M33.9999 33.3851C33.9999 33.2935 33.9953 33.0746 33.9919 32.9841C33.9964 32.9027 33.9999 32.8176 33.9999 32.7259C33.9999 27.4359 32.453 23.9927 32.453 23.9927L29.2737 26.0024H25.5876C25.5796 26.0031 25.5716 26.0024 25.5633 26.0024H21.8771L18.6983 23.9927C18.6983 23.9927 17.1514 27.4359 17.1514 32.7259V32.732C17.1369 32.9058 17.1274 34.3799 17.1274 34.5568" stroke="black" stroke-width="1.5" stroke-linecap="round" stroke-linejoin="round"/>
<path d="M51.3615 34.5568C51.3615 34.4651 51.3569 33.0746 51.3535 32.9841C51.3581 32.9027 51.3615 32.8176 51.3615 32.7259C51.3615 27.4359 49.8146 23.9927 49.8146 23.9927L46.6354 26.0024H42.9492C42.9412 26.0031 42.9333 26.0024 42.9249 26.0024H39.2388L36.0599 23.9927C36.0599 23.9927 34.513 27.4359 34.513 32.7259V32.732C34.4986 32.9058 34.513 34.3799 34.513 34.5568" stroke="black" stroke-width="1.5" stroke-linecap="round" stroke-linejoin="round"/>
<path d="M15.6667 34.5568H52.3334" stroke="black" stroke-width="1.5" stroke-linecap="round" stroke-linejoin="round"/>
</g>
</svg>
