<svg width="68" height="68" viewBox="0 0 68 68" fill="none" xmlns="http://www.w3.org/2000/svg">
<rect opacity="0.9" width="68" height="68" rx="20" fill="#FFF2F6"/>
<mask id="mask0_3210_38330" style="mask-type:alpha" maskUnits="userSpaceOnUse" x="16" y="16" width="40" height="40">
<rect x="16" y="16" width="40" height="40" fill="#BDBDBD"/>
</mask>
<g mask="url(#mask0_3210_38330)">
<path fill-rule="evenodd" clip-rule="evenodd" d="M39.3332 28.5001C39.3332 34.483 34.483 39.3334 28.5003 39.3334C22.5167 39.3334 17.6665 34.483 17.6665 28.5001C17.6665 22.5171 22.5167 17.6667 28.5003 17.6667C34.483 17.6667 39.3332 22.5171 39.3332 28.5001" fill="#FF4081"/>
<rect x="34.3555" y="23.2388" width="8.21091" height="26.6854" transform="rotate(-25 34.3555 23.2388)" fill="white" stroke="#222222" stroke-width="1.5" stroke-linecap="round" stroke-linejoin="round"/>
<path fill-rule="evenodd" clip-rule="evenodd" d="M47.06 45.6265L48.9202 44.7591L48.9203 44.7588L48.9205 44.7589L50.7797 43.892L50.78 43.8911L50.7809 43.8914L52.641 43.0241L52.6411 43.0238L52.6412 43.024L52.6412 43.0239L53.5087 44.8844L53.5087 44.8844L54.3761 46.7446L53.0115 46.2479L52.515 47.6119L51.1517 47.1157L50.6553 48.4796L49.2914 47.9832L48.7949 49.3472L47.431 48.8508L46.9346 50.2147L46.0672 48.3544L46.0671 48.3544L46.0671 48.3544L46.067 48.3544L46.0671 48.3543L45.1996 46.494L45.1996 46.494L45.1996 46.4939L45.1998 46.4939L47.0599 45.6266L47.0599 45.6264L47.06 45.6265Z" fill="white"/>
<path d="M48.9202 44.7591L49.2371 45.4388C49.4174 45.3548 49.5569 45.2025 49.6249 45.0156L48.9202 44.7591ZM47.06 45.6265L46.8035 46.3313C46.9904 46.3993 47.1967 46.3903 47.377 46.3062L47.06 45.6265ZM48.9203 44.7588L49.1768 44.0541C48.7875 43.9124 48.3572 44.1131 48.2155 44.5023L48.9203 44.7588ZM48.9205 44.7589L48.664 45.4637C48.8509 45.5317 49.0572 45.5227 49.2375 45.4387L48.9205 44.7589ZM50.7797 43.892L51.0966 44.5717C51.2769 44.4877 51.4164 44.3354 51.4844 44.1485L50.7797 43.892ZM50.78 43.8911L51.0365 43.1863C50.8496 43.1183 50.6433 43.1273 50.463 43.2114C50.2828 43.2954 50.1433 43.4477 50.0752 43.6346L50.78 43.8911ZM50.7809 43.8914L50.5244 44.5962C50.7113 44.6642 50.9176 44.6552 51.0979 44.5712L50.7809 43.8914ZM52.641 43.0241L52.9579 43.7038C53.1382 43.6197 53.2777 43.4675 53.3457 43.2806L52.641 43.0241ZM52.6411 43.0238L53.3208 42.7068C53.1926 42.4319 52.9114 42.2613 52.6084 42.2745C52.3053 42.2877 52.04 42.4822 51.9363 42.7673L52.6411 43.0238ZM52.6412 43.024L51.9614 43.3409C52.1365 43.7164 52.5827 43.8788 52.9581 43.7037L52.6412 43.024ZM52.6412 43.0239L53.321 42.707C53.1459 42.3316 52.6997 42.1692 52.3243 42.3442L52.6412 43.0239ZM53.5087 44.8844L53.8257 45.5641C54.006 45.48 54.1455 45.3278 54.2135 45.1409C54.2815 44.954 54.2725 44.7477 54.1885 44.5674L53.5087 44.8844ZM53.5087 44.8844L53.1917 44.2047C53.0114 44.2887 52.8719 44.441 52.8039 44.6279C52.7359 44.8148 52.7449 45.0211 52.8289 45.2013L53.5087 44.8844ZM54.3761 46.7446L54.1196 47.4494C54.4046 47.5531 54.7241 47.4749 54.9291 47.2513C55.134 47.0276 55.184 46.7026 55.0558 46.4276L54.3761 46.7446ZM53.0115 46.2479L53.268 45.5431C52.8788 45.4015 52.4484 45.6022 52.3067 45.9914L53.0115 46.2479ZM52.515 47.6119L52.2585 48.3167C52.6478 48.4583 53.0781 48.2577 53.2198 47.8684L52.515 47.6119ZM51.1517 47.1157L51.4082 46.4109C51.019 46.2693 50.5886 46.47 50.447 46.8592L51.1517 47.1157ZM50.6553 48.4796L50.3988 49.1844C50.788 49.3261 51.2184 49.1254 51.3601 48.7361L50.6553 48.4796ZM49.2914 47.9832L49.5479 47.2785C49.361 47.2104 49.1547 47.2194 48.9745 47.3035C48.7942 47.3876 48.6547 47.5398 48.5866 47.7267L49.2914 47.9832ZM48.7949 49.3472L48.5384 50.052C48.7254 50.1201 48.9316 50.111 49.1119 50.027C49.2922 49.9429 49.4317 49.7907 49.4997 49.6038L48.7949 49.3472ZM47.431 48.8508L47.6875 48.146C47.2983 48.0044 46.8679 48.2051 46.7262 48.5943L47.431 48.8508ZM46.9346 50.2147L46.2549 50.5316C46.3831 50.8065 46.6643 50.9772 46.9673 50.9639C47.2704 50.9507 47.5356 50.7562 47.6394 50.4712L46.9346 50.2147ZM46.0672 48.3544L46.7469 48.0375C46.5718 47.6621 46.1256 47.4996 45.7502 47.6747L46.0672 48.3544ZM46.0671 48.3544L45.3874 48.6714C45.5625 49.0468 46.0087 49.2092 46.3841 49.0342L46.0671 48.3544ZM46.0671 48.3544L46.7469 48.0374C46.6628 47.8572 46.5106 47.7177 46.3236 47.6496L46.0671 48.3544ZM46.067 48.3544L45.3623 48.0979C45.2206 48.4871 45.4213 48.9175 45.8105 49.0591L46.067 48.3544ZM46.0671 48.3543L46.7718 48.6108C46.8399 48.4239 46.8309 48.2176 46.7468 48.0373L46.0671 48.3543ZM45.1996 46.494L44.8827 45.8143C44.7024 45.8984 44.5629 46.0506 44.4948 46.2375C44.4268 46.4244 44.4358 46.6307 44.5199 46.811L45.1996 46.494ZM45.1996 46.494L45.5166 47.1738C45.6969 47.0897 45.8364 46.9375 45.9044 46.7505C45.9724 46.5636 45.9634 46.3573 45.8794 46.1771L45.1996 46.494ZM45.1996 46.4939L45.4551 45.7888C45.1701 45.6854 44.8509 45.7639 44.6463 45.9875C44.4416 46.2112 44.3917 46.5361 44.5198 46.8108L45.1996 46.4939ZM45.1998 46.4939L44.9442 47.199C45.1309 47.2667 45.3368 47.2576 45.5168 47.1737L45.1998 46.4939ZM47.0599 45.6266L47.3768 46.3063C47.5571 46.2222 47.6966 46.07 47.7646 45.8831L47.0599 45.6266ZM47.0599 45.6264L47.3164 44.9217C46.9272 44.78 46.4968 44.9807 46.3551 45.3699L47.0599 45.6264ZM48.6032 44.0794L46.7431 44.9468L47.377 46.3062L49.2371 45.4388L48.6032 44.0794ZM48.2155 44.5023L48.2154 44.5026L49.6249 45.0156L49.625 45.0153L48.2155 44.5023ZM49.1771 44.0542L49.1768 44.0541L48.6637 45.4636L48.664 45.4637L49.1771 44.0542ZM50.4627 43.2123L48.6036 44.0792L49.2375 45.4387L51.0966 44.5717L50.4627 43.2123ZM50.0752 43.6346L50.0749 43.6355L51.4844 44.1485L51.4848 44.1476L50.0752 43.6346ZM51.0374 43.1867L51.0365 43.1863L50.5235 44.5959L50.5244 44.5962L51.0374 43.1867ZM52.324 42.3443L50.4639 43.2117L51.0979 44.5712L52.9579 43.7038L52.324 42.3443ZM51.9363 42.7673L51.9362 42.7676L53.3457 43.2806L53.3458 43.2803L51.9363 42.7673ZM53.3209 42.707L53.3208 42.7068L51.9613 43.3408L51.9614 43.3409L53.3209 42.707ZM52.3243 42.3442L52.3242 42.3443L52.9581 43.7037L52.9582 43.7037L52.3243 42.3442ZM54.1885 44.5674L53.321 42.707L51.9615 43.3409L52.829 45.2013L54.1885 44.5674ZM53.8256 45.5641L53.8257 45.5641L53.1918 44.2046L53.1917 44.2047L53.8256 45.5641ZM55.0558 46.4276L54.1884 44.5674L52.8289 45.2013L53.6964 47.0616L55.0558 46.4276ZM52.755 46.9527L54.1196 47.4494L54.6326 46.0398L53.268 45.5431L52.755 46.9527ZM53.2198 47.8684L53.7163 46.5044L52.3067 45.9914L51.8103 47.3554L53.2198 47.8684ZM50.8952 47.8205L52.2585 48.3167L52.7716 46.9071L51.4082 46.4109L50.8952 47.8205ZM51.3601 48.7361L51.8565 47.3722L50.447 46.8592L49.9505 48.2231L51.3601 48.7361ZM49.0349 48.688L50.3988 49.1844L50.9118 47.7749L49.5479 47.2785L49.0349 48.688ZM49.4997 49.6038L49.9962 48.2397L48.5866 47.7267L48.0902 49.0907L49.4997 49.6038ZM47.1745 49.5556L48.5384 50.052L49.0515 48.6425L47.6875 48.146L47.1745 49.5556ZM47.6394 50.4712L48.1358 49.1073L46.7262 48.5943L46.2298 49.9581L47.6394 50.4712ZM45.3874 48.6714L46.2549 50.5316L47.6143 49.8977L46.7469 48.0375L45.3874 48.6714ZM46.3841 49.0342L46.3841 49.0342L45.7502 47.6747L45.7502 47.6747L46.3841 49.0342ZM45.3874 48.6714L45.3874 48.6714L46.7469 48.0375L46.7469 48.0374L45.3874 48.6714ZM45.8105 49.0591L45.8106 49.0592L46.3236 47.6496L46.3235 47.6496L45.8105 49.0591ZM45.3623 48.0978L45.3623 48.0979L46.7718 48.6109L46.7718 48.6108L45.3623 48.0978ZM44.5199 46.811L45.3873 48.6712L46.7468 48.0373L45.8793 46.1771L44.5199 46.811ZM44.8827 45.8143L44.8827 45.8143L45.5166 47.1738L45.5166 47.1738L44.8827 45.8143ZM44.5198 46.8108L44.5199 46.811L45.8794 46.1771L45.8793 46.1769L44.5198 46.8108ZM45.4554 45.7888L45.4551 45.7888L44.944 47.199L44.9442 47.199L45.4554 45.7888ZM46.7429 44.9469L44.8828 45.8142L45.5168 47.1737L47.3768 46.3063L46.7429 44.9469ZM46.3551 45.3699L46.3551 45.3701L47.7646 45.8831L47.7647 45.883L46.3551 45.3699ZM47.3166 44.9217L47.3164 44.9217L46.8034 46.3312L46.8035 46.3313L47.3166 44.9217Z" fill="#222222"/>
<path fill-rule="evenodd" clip-rule="evenodd" d="M36.2783 20.0772L34.9144 19.5808L34.4179 20.9448L33.054 20.4484L33.9215 22.3087L33.9215 22.3087L33.9215 22.3087L34.789 24.1692L34.7891 24.1692L34.7891 24.1692L42.2307 20.6991L41.3632 18.8387L41.3631 18.8387L41.3631 18.8386L41.363 18.8386L40.4955 16.9783L39.9991 18.3422L38.6352 17.8458L38.1388 19.2098L36.7747 18.7133L36.2783 20.0772Z" fill="white"/>
<path d="M34.9144 19.5808L34.2096 19.3243C34.2776 19.1374 34.4171 18.9851 34.5974 18.9011C34.7777 18.817 34.984 18.808 35.1709 18.876L34.9144 19.5808ZM36.2783 20.0772L36.983 20.3337C36.915 20.5207 36.7755 20.6729 36.5952 20.757C36.415 20.841 36.2087 20.85 36.0218 20.782L36.2783 20.0772ZM34.4179 20.9448L35.1227 21.2014C34.981 21.5906 34.5506 21.7913 34.1614 21.6496L34.4179 20.9448ZM33.054 20.4484L32.3743 20.7654C32.2461 20.4905 32.2961 20.1654 32.501 19.9417C32.706 19.7181 33.0255 19.6399 33.3105 19.7437L33.054 20.4484ZM33.9215 22.3087L34.6012 21.9918C34.6853 22.172 34.6943 22.3783 34.6262 22.5652L33.9215 22.3087ZM33.9215 22.3087L33.665 23.0135C33.2757 22.8718 33.075 22.4414 33.2167 22.0522L33.9215 22.3087ZM33.9215 22.3087L34.178 21.604C34.3649 21.672 34.5171 21.8115 34.6012 21.9918L33.9215 22.3087ZM34.789 24.1692L35.4938 24.4257C35.3901 24.7108 35.1248 24.9053 34.8218 24.9185C34.5187 24.9317 34.2375 24.7611 34.1093 24.4862L34.789 24.1692ZM34.7891 24.1692L34.0843 23.9126C34.188 23.6276 34.4533 23.4331 34.7564 23.4199C35.0594 23.4066 35.3406 23.5773 35.4688 23.8522L34.7891 24.1692ZM34.7891 24.1692L35.106 24.8489C34.7306 25.024 34.2844 24.8616 34.1094 24.4862L34.7891 24.1692ZM42.2307 20.6991L42.9104 20.3822C42.9945 20.5624 43.0035 20.7687 42.9355 20.9556C42.8674 21.1426 42.7279 21.2948 42.5477 21.3788L42.2307 20.6991ZM41.3632 18.8387L41.0462 18.159C41.2265 18.0749 41.4328 18.0659 41.6197 18.1339C41.8066 18.202 41.9588 18.3415 42.0429 18.5218L41.3632 18.8387ZM41.3631 18.8387L41.6801 19.5185C41.4051 19.6467 41.0801 19.5966 40.8564 19.3917C40.6328 19.1868 40.5546 18.8673 40.6583 18.5822L41.3631 18.8387ZM41.3631 18.8386L41.6197 18.1339C42.0089 18.2755 42.2096 18.7059 42.0679 19.0952L41.3631 18.8386ZM41.363 18.8386L41.1065 19.5434C40.9196 19.4753 40.7673 19.3358 40.6833 19.1556L41.363 18.8386ZM40.4955 16.9783L39.7907 16.7217C39.8945 16.4367 40.1597 16.2422 40.4628 16.229C40.7659 16.2157 41.047 16.3864 41.1752 16.6613L40.4955 16.9783ZM39.9991 18.3422L40.7039 18.5987C40.6358 18.7856 40.4963 18.9378 40.316 19.0219C40.1358 19.106 39.9295 19.115 39.7426 19.0469L39.9991 18.3422ZM38.6352 17.8458L37.9304 17.5892C37.9985 17.4023 38.138 17.2501 38.3183 17.166C38.4985 17.082 38.7048 17.073 38.8917 17.141L38.6352 17.8458ZM38.1388 19.2098L38.8435 19.4663C38.7755 19.6532 38.636 19.8054 38.4557 19.8895C38.2754 19.9736 38.0692 19.9826 37.8822 19.9145L38.1388 19.2098ZM36.7747 18.7133L36.0699 18.4568C36.2116 18.0675 36.642 17.8669 37.0312 18.0085L36.7747 18.7133ZM35.1709 18.876L36.5348 19.3725L36.0218 20.782L34.6578 20.2856L35.1709 18.876ZM33.7131 20.6883L34.2096 19.3243L35.6191 19.8373L35.1227 21.2014L33.7131 20.6883ZM33.3105 19.7437L34.6744 20.2401L34.1614 21.6496L32.7975 21.1532L33.3105 19.7437ZM33.2417 22.6257L32.3743 20.7654L33.7337 20.1315L34.6012 21.9918L33.2417 22.6257ZM33.2167 22.0522L33.2167 22.0522L34.6262 22.5652L34.6262 22.5652L33.2167 22.0522ZM33.665 23.0135L33.665 23.0135L34.178 21.604L34.178 21.604L33.665 23.0135ZM34.1093 24.4862L33.2417 22.6257L34.6012 21.9918L35.4688 23.8523L34.1093 24.4862ZM35.4938 24.4257L35.4938 24.4257L34.0843 23.9127L34.0843 23.9126L35.4938 24.4257ZM34.1094 24.4862L34.1093 24.4861L35.4688 23.8522L35.4688 23.8522L34.1094 24.4862ZM42.5477 21.3788L35.106 24.8489L34.4721 23.4895L41.9137 20.0194L42.5477 21.3788ZM42.0429 18.5218L42.9104 20.3822L41.551 21.0161L40.6834 19.1557L42.0429 18.5218ZM41.0461 18.159L41.0462 18.159L41.6801 19.5184L41.6801 19.5185L41.0461 18.159ZM42.0679 19.0952L42.0679 19.0953L40.6583 18.5822L40.6584 18.5821L42.0679 19.0952ZM41.6195 18.1338L41.6197 18.1339L41.1066 19.5434L41.1065 19.5434L41.6195 18.1338ZM41.1752 16.6613L42.0427 18.5216L40.6833 19.1556L39.8158 17.2952L41.1752 16.6613ZM39.2943 18.0857L39.7907 16.7217L41.2003 17.2348L40.7039 18.5987L39.2943 18.0857ZM38.8917 17.141L40.2556 17.6374L39.7426 19.0469L38.3787 18.5505L38.8917 17.141ZM37.434 18.9533L37.9304 17.5892L39.34 18.1023L38.8435 19.4663L37.434 18.9533ZM37.0312 18.0085L38.3953 18.505L37.8822 19.9145L36.5182 19.4181L37.0312 18.0085ZM35.5735 19.8207L36.0699 18.4568L37.4795 18.9698L36.983 20.3337L35.5735 19.8207Z" fill="#222222"/>
<rect x="30.6345" y="24.974" width="8.21091" height="26.6854" transform="rotate(-25 30.6345 24.974)" fill="white" stroke="#222222" stroke-width="1.5" stroke-linecap="round" stroke-linejoin="round"/>
<path fill-rule="evenodd" clip-rule="evenodd" d="M41.4788 48.229L41.4789 48.2291L41.4788 48.2291L43.2138 51.9499L43.7103 50.5858L45.0742 51.0822L45.5706 49.7183L46.9345 50.2148L47.431 48.8508L48.795 49.3472L49.2915 47.9833L50.6553 48.4797L49.7879 46.6195L49.7879 46.6193L49.7879 46.6193L49.788 46.6193L48.9204 44.7589L48.9203 44.7589L48.9203 44.7589L48.9203 44.759L45.1995 46.494L45.1995 46.494L45.1995 46.494L43.3393 47.3614L43.3391 47.3614L43.3391 47.3615L41.4788 48.229Z" fill="white"/>
<path d="M41.4789 48.2291L41.2224 48.9339C41.5074 49.0377 41.8269 48.9595 42.0319 48.7358C42.2368 48.5122 42.2868 48.1871 42.1586 47.9122L41.4789 48.2291ZM41.4788 48.229L41.1619 47.5492C40.7865 47.7243 40.624 48.1705 40.7991 48.5459L41.4788 48.229ZM41.4788 48.2291L41.7353 47.5243C41.4502 47.4206 41.1307 47.4987 40.9258 47.7224C40.7209 47.946 40.6708 48.2711 40.799 48.5461L41.4788 48.2291ZM43.2138 51.9499L42.5341 52.2669C42.6623 52.5418 42.9435 52.7124 43.2465 52.6992C43.5496 52.6859 43.8148 52.4915 43.9186 52.2064L43.2138 51.9499ZM43.7103 50.5858L43.9668 49.881C43.5776 49.7393 43.1472 49.94 43.0055 50.3293L43.7103 50.5858ZM45.0742 51.0822L44.8176 51.7869C45.2069 51.9286 45.6373 51.7279 45.7789 51.3387L45.0742 51.0822ZM45.5706 49.7183L45.8271 49.0136C45.6402 48.9455 45.4339 48.9545 45.2536 49.0386C45.0733 49.1227 44.9338 49.2749 44.8658 49.4618L45.5706 49.7183ZM46.9345 50.2148L46.678 50.9195C46.8649 50.9876 47.0712 50.9786 47.2515 50.8945C47.4318 50.8104 47.5713 50.6582 47.6393 50.4713L46.9345 50.2148ZM47.431 48.8508L47.6875 48.146C47.2983 48.0043 46.8679 48.205 46.7262 48.5942L47.431 48.8508ZM48.795 49.3472L48.5385 50.052C48.9277 50.1937 49.3581 49.993 49.4998 49.6037L48.795 49.3472ZM49.2915 47.9833L49.548 47.2785C49.1587 47.1369 48.7284 47.3376 48.5867 47.7268L49.2915 47.9833ZM50.6553 48.4797L50.3988 49.1845C50.6839 49.2882 51.0033 49.2101 51.2083 48.9864C51.4132 48.7628 51.4632 48.4377 51.335 48.1628L50.6553 48.4797ZM49.7879 46.6195L49.0831 46.3629C49.0151 46.5499 49.0241 46.7561 49.1081 46.9364L49.7879 46.6195ZM49.7879 46.6193L50.4927 46.8758C50.5607 46.6889 50.5517 46.4826 50.4676 46.3023C50.3836 46.1221 50.2313 45.9826 50.0444 45.9145L49.7879 46.6193ZM49.7879 46.6193L49.4709 45.9396C49.196 46.0678 49.0254 46.349 49.0386 46.652C49.0518 46.9551 49.2463 47.2203 49.5314 47.3241L49.7879 46.6193ZM49.788 46.6193L50.1049 47.299C50.4803 47.124 50.6427 46.6777 50.4677 46.3023L49.788 46.6193ZM48.9204 44.7589L49.6002 44.4419C49.4251 44.0665 48.9789 43.9041 48.6035 44.0791L48.9204 44.7589ZM48.9203 44.7589L48.2406 45.0759C48.3246 45.2562 48.4769 45.3957 48.6638 45.4637C48.8507 45.5317 49.057 45.5227 49.2373 45.4387L48.9203 44.7589ZM48.9203 44.7589L49.6 44.442C49.4718 44.167 49.1906 43.9964 48.8876 44.0096C48.5845 44.0229 48.3193 44.2174 48.2155 44.5024L48.9203 44.7589ZM48.9203 44.759L49.2372 45.4387C49.4175 45.3546 49.557 45.2024 49.625 45.0155L48.9203 44.759ZM45.1995 46.494L44.943 47.1987C45.1299 47.2668 45.3362 47.2578 45.5165 47.1737L45.1995 46.494ZM45.1995 46.494L45.456 45.7892C45.2691 45.7212 45.0628 45.7302 44.8825 45.8142C44.7022 45.8983 44.5627 46.0505 44.4947 46.2374L45.1995 46.494ZM45.1995 46.494L45.5164 47.1737C45.6967 47.0897 45.8362 46.9374 45.9042 46.7505L45.1995 46.494ZM43.3393 47.3614L43.0827 48.0662C43.2697 48.1342 43.4759 48.1252 43.6562 48.0412L43.3393 47.3614ZM43.3391 47.3614L43.5956 46.6566C43.4087 46.5886 43.2024 46.5976 43.0222 46.6816C42.8419 46.7657 42.7024 46.9179 42.6344 47.1049L43.3391 47.3614ZM43.3391 47.3615L43.656 48.0412C43.8363 47.9572 43.9758 47.8049 44.0438 47.618L43.3391 47.3615ZM42.1586 47.9122L42.1586 47.912L40.7991 48.5459L40.7992 48.5461L42.1586 47.9122ZM41.2223 48.9339L41.2224 48.9339L41.7354 47.5244L41.7353 47.5243L41.2223 48.9339ZM43.8935 51.6329L42.1585 47.9121L40.799 48.5461L42.5341 52.2669L43.8935 51.6329ZM43.0055 50.3293L42.509 51.6934L43.9186 52.2064L44.4151 50.8423L43.0055 50.3293ZM45.3307 50.3774L43.9668 49.881L43.4538 51.2905L44.8176 51.7869L45.3307 50.3774ZM44.8658 49.4618L44.3694 50.8257L45.7789 51.3387L46.2753 49.9748L44.8658 49.4618ZM47.191 49.51L45.8271 49.0136L45.314 50.4231L46.678 50.9195L47.191 49.51ZM46.7262 48.5942L46.2297 49.9582L47.6393 50.4713L48.1357 49.1073L46.7262 48.5942ZM49.0515 48.6425L47.6875 48.146L47.1745 49.5555L48.5385 50.052L49.0515 48.6425ZM48.5867 47.7268L48.0903 49.0907L49.4998 49.6037L49.9962 48.2398L48.5867 47.7268ZM49.0349 48.6881L50.3988 49.1845L50.9118 47.775L49.548 47.2785L49.0349 48.6881ZM51.335 48.1628L50.4676 46.3025L49.1081 46.9364L49.9756 48.7967L51.335 48.1628ZM49.0831 46.3628L49.0831 46.3629L50.4926 46.876L50.4927 46.8758L49.0831 46.3628ZM49.5314 47.3241L49.5314 47.3241L50.0444 45.9145L50.0444 45.9145L49.5314 47.3241ZM49.471 45.9395L49.4709 45.9396L50.1049 47.299L50.1049 47.299L49.471 45.9395ZM48.2407 45.0758L49.1082 46.9362L50.4677 46.3023L49.6002 44.4419L48.2407 45.0758ZM49.2373 45.4387L49.2374 45.4386L48.6035 44.0791L48.6033 44.0792L49.2373 45.4387ZM49.6 44.442L49.6 44.442L48.2405 45.0759L48.2406 45.0759L49.6 44.442ZM48.2155 44.5024L48.2155 44.5024L49.625 45.0155L49.625 45.0154L48.2155 44.5024ZM45.5165 47.1737L49.2372 45.4387L48.6033 44.0792L44.8825 45.8142L45.5165 47.1737ZM44.943 47.1987L44.943 47.1987L45.456 45.7892L45.456 45.7892L44.943 47.1987ZM45.9042 46.7505L45.9042 46.7505L44.4947 46.2374L44.4947 46.2375L45.9042 46.7505ZM43.6562 48.0412L45.5164 47.1737L44.8825 45.8143L43.0223 46.6817L43.6562 48.0412ZM43.0826 48.0661L43.0827 48.0662L43.5958 46.6567L43.5956 46.6566L43.0826 48.0661ZM44.0438 47.618L44.0439 47.6179L42.6344 47.1049L42.6343 47.105L44.0438 47.618ZM41.7958 48.9087L43.656 48.0412L43.0221 46.6818L41.1619 47.5492L41.7958 48.9087Z" fill="#222222"/>
<path fill-rule="evenodd" clip-rule="evenodd" d="M31.0685 25.9041L30.201 24.0437L30.201 24.0437L30.201 24.0437L29.3335 22.1833L30.6974 22.6797L31.1939 21.3158L32.558 21.8123L33.0544 20.4484L34.4183 20.9448L34.9147 19.5808L36.2788 20.0773L36.7752 18.7133L38.5103 22.4341L38.5102 22.4341L34.7895 24.1691L34.7894 24.1692L34.7894 24.1692L31.0686 25.9042L31.0685 25.9041L31.0685 25.9041Z" fill="white"/>
<path d="M30.201 24.0437L30.4592 23.3396C30.6454 23.4079 30.797 23.5471 30.8808 23.7268L30.201 24.0437ZM31.0685 25.9041L31.7733 26.1606C31.6696 26.4457 31.4043 26.6402 31.1013 26.6534C30.7982 26.6666 30.517 26.496 30.3888 26.2211L31.0685 25.9041ZM30.201 24.0437L29.9428 24.7479C29.5545 24.6055 29.3548 24.1758 29.4962 23.7872L30.201 24.0437ZM30.201 24.0437L30.8807 23.7267C30.9648 23.907 30.9738 24.1133 30.9058 24.3002L30.201 24.0437ZM29.3335 22.1833L28.6538 22.5003C28.5256 22.2253 28.5756 21.9003 28.7805 21.6766C28.9855 21.453 29.305 21.3748 29.59 21.4785L29.3335 22.1833ZM30.6974 22.6797L31.4022 22.9362C31.2605 23.3255 30.8301 23.5262 30.4409 23.3845L30.6974 22.6797ZM31.1939 21.3158L30.4891 21.0593C30.6308 20.67 31.0611 20.4694 31.4504 20.611L31.1939 21.3158ZM32.558 21.8123L33.2628 22.0688C33.1211 22.458 32.6907 22.6587 32.3015 22.5171L32.558 21.8123ZM33.0544 20.4484L32.3496 20.1919C32.4913 19.8026 32.9217 19.6019 33.3109 19.7436L33.0544 20.4484ZM34.4183 20.9448L35.123 21.2013C35.055 21.3882 34.9155 21.5405 34.7352 21.6245C34.5549 21.7086 34.3487 21.7176 34.1617 21.6496L34.4183 20.9448ZM34.9147 19.5808L34.2099 19.3243C34.278 19.1374 34.4175 18.9851 34.5977 18.9011C34.778 18.817 34.9843 18.808 35.1712 18.876L34.9147 19.5808ZM36.2788 20.0773L36.9836 20.3338C36.9155 20.5207 36.776 20.6729 36.5958 20.757C36.4155 20.8411 36.2092 20.8501 36.0223 20.782L36.2788 20.0773ZM36.7752 18.7133L36.0704 18.4568C36.1742 18.1718 36.4394 17.9773 36.7425 17.9641C37.0456 17.9508 37.3267 18.1215 37.4549 18.3964L36.7752 18.7133ZM38.5103 22.4341L39.19 22.1172C39.3182 22.3921 39.2682 22.7172 39.0632 22.9408C38.8583 23.1645 38.5388 23.2427 38.2537 23.1389L38.5103 22.4341ZM38.5102 22.4341L38.1932 21.7544C38.3735 21.6703 38.5798 21.6613 38.7667 21.7293L38.5102 22.4341ZM34.7895 24.1691L34.0847 23.9126C34.1527 23.7257 34.2922 23.5734 34.4725 23.4894L34.7895 24.1691ZM34.7894 24.1692L35.4942 24.4257C35.4262 24.6126 35.2867 24.7649 35.1064 24.8489C34.9261 24.933 34.7199 24.942 34.5329 24.874L34.7894 24.1692ZM34.7894 24.1692L34.4724 23.4894C34.6527 23.4054 34.859 23.3964 35.0459 23.4644L34.7894 24.1692ZM31.0686 25.9042L31.3856 26.5839C31.0101 26.759 30.5639 26.5966 30.3889 26.2211L31.0686 25.9042ZM31.0685 25.9041L30.3638 25.6476C30.4675 25.3625 30.7328 25.168 31.0358 25.1548C31.3389 25.1416 31.6201 25.3122 31.7483 25.5871L31.0685 25.9041ZM30.8808 23.7268L31.7483 25.5871L30.3888 26.2211L29.5213 24.3607L30.8808 23.7268ZM30.4592 23.3396L30.4592 23.3396L29.9428 24.7479L29.9428 24.7479L30.4592 23.3396ZM30.9058 24.3002L30.9057 24.3002L29.4962 23.7872L29.4962 23.7871L30.9058 24.3002ZM30.0132 21.8663L30.8807 23.7267L29.5213 24.3606L28.6538 22.5003L30.0132 21.8663ZM30.4409 23.3845L29.077 22.8881L29.59 21.4785L30.9539 21.975L30.4409 23.3845ZM31.8986 21.5723L31.4022 22.9362L29.9927 22.4232L30.4891 21.0593L31.8986 21.5723ZM32.3015 22.5171L30.9373 22.0206L31.4504 20.611L32.8145 21.1075L32.3015 22.5171ZM33.7592 20.7049L33.2628 22.0688L31.8532 21.5558L32.3496 20.1919L33.7592 20.7049ZM34.1617 21.6496L32.7979 21.1532L33.3109 19.7436L34.6748 20.24L34.1617 21.6496ZM35.6195 19.8373L35.123 21.2013L33.7135 20.6883L34.2099 19.3243L35.6195 19.8373ZM36.0223 20.782L34.6582 20.2856L35.1712 18.876L36.5353 19.3725L36.0223 20.782ZM35.574 19.8208L36.0704 18.4568L37.48 18.9699L36.9836 20.3338L35.574 19.8208ZM37.4549 18.3964L39.19 22.1172L37.8305 22.7511L36.0955 19.0303L37.4549 18.3964ZM38.2537 23.1389L38.2537 23.1389L38.7667 21.7293L38.7668 21.7294L38.2537 23.1389ZM34.4725 23.4894L38.1932 21.7544L38.8271 23.1138L35.1064 24.8488L34.4725 23.4894ZM34.0847 23.9127L34.0847 23.9126L35.4943 24.4256L35.4942 24.4257L34.0847 23.9127ZM35.0459 23.4644L35.046 23.4644L34.5329 24.874L34.5328 24.8739L35.0459 23.4644ZM30.7516 25.2245L34.4724 23.4894L35.1063 24.8489L31.3856 26.5839L30.7516 25.2245ZM31.7483 25.5871L31.7483 25.5872L30.3889 26.2211L30.3888 26.2211L31.7483 25.5871ZM30.3638 25.6476L30.3638 25.6476L31.7733 26.1606L31.7733 26.1606L30.3638 25.6476Z" fill="#222222"/>
<rect x="19.323" y="38.757" width="7.35281" height="23.8966" transform="rotate(-55 19.323 38.757)" fill="white" stroke="#222222" stroke-width="1.5" stroke-linecap="round" stroke-linejoin="round"/>
<path fill-rule="evenodd" clip-rule="evenodd" d="M44.0935 48.2478L45.374 48.022L42.3625 45.9133L42.3625 45.9133L42.3625 45.9133L41.3081 47.4191L41.3077 47.4192L41.3077 47.4196L39.1994 50.4306L39.1993 50.4306L39.1993 50.4307L38.1451 51.9364L38.1451 51.9364L38.145 51.9364L41.1566 54.0451L40.9308 52.765L42.2108 52.5393L41.9851 51.2593L43.2653 51.0335L43.0396 49.7535L44.3192 49.5279L44.0935 48.2478Z" fill="white"/>
<path d="M44.0935 48.2478L43.9633 47.5092C43.7674 47.5437 43.5932 47.6547 43.4791 47.8176C43.365 47.9806 43.3204 48.1821 43.3549 48.378L44.0935 48.2478ZM45.374 48.022L45.5043 48.7606C45.803 48.7079 46.0406 48.4805 46.1062 48.1843C46.1719 47.8882 46.0527 47.5816 45.8042 47.4076L45.374 48.022ZM42.3625 45.9133L42.7927 45.2989C42.544 45.1248 42.215 45.1178 41.9591 45.281C41.7032 45.4443 41.5709 45.7457 41.6241 46.0446L42.3625 45.9133ZM42.3625 45.9133L41.9323 46.5277C42.181 46.7018 42.51 46.7089 42.7659 46.5456C43.0218 46.3823 43.154 46.0809 43.1009 45.7821L42.3625 45.9133ZM42.3625 45.9133L42.7926 45.2989C42.4533 45.0614 41.9857 45.1438 41.7481 45.4831L42.3625 45.9133ZM41.3081 47.4191L41.4383 48.1577C41.6342 48.1232 41.8083 48.0122 41.9224 47.8493L41.3081 47.4191ZM41.3077 47.4192L41.1774 46.6806C40.9816 46.7151 40.8074 46.8261 40.6933 46.989C40.5792 47.1519 40.5345 47.3535 40.5691 47.5494L41.3077 47.4192ZM41.3077 47.4196L41.9221 47.8498C42.0362 47.6868 42.0809 47.4852 42.0464 47.2893L41.3077 47.4196ZM39.1994 50.4306L39.3297 51.1692C39.5256 51.1346 39.6997 51.0237 39.8138 50.8607L39.1994 50.4306ZM39.1993 50.4306L39.0691 49.692C38.6612 49.7639 38.3888 50.1529 38.4607 50.5608L39.1993 50.4306ZM39.1993 50.4307L39.8137 50.8609C39.9278 50.6979 39.9725 50.4964 39.9379 50.3005L39.1993 50.4307ZM38.1451 51.9364L37.5307 51.5062C37.2931 51.8455 37.3756 52.3131 37.7149 52.5507L38.1451 51.9364ZM38.1451 51.9364L38.2753 52.675C38.5741 52.6223 38.8117 52.3949 38.8773 52.0987C38.943 51.8026 38.8238 51.496 38.5753 51.322L38.1451 51.9364ZM38.145 51.9364L38.0148 51.1978C37.7161 51.2505 37.4785 51.4779 37.4128 51.7741C37.3471 52.0702 37.4664 52.3768 37.7148 52.5508L38.145 51.9364ZM41.1566 54.0451L40.7264 54.6595C40.9749 54.8335 41.3037 54.8406 41.5595 54.6777C41.8154 54.5147 41.9478 54.2136 41.8952 53.9149L41.1566 54.0451ZM40.9308 52.765L40.8006 52.0264C40.6047 52.0609 40.4306 52.1719 40.3165 52.3348C40.2024 52.4977 40.1577 52.6993 40.1922 52.8952L40.9308 52.765ZM42.2108 52.5393L42.3411 53.2779C42.537 53.2433 42.7111 53.1324 42.8252 52.9695C42.9393 52.8065 42.984 52.6049 42.9494 52.409L42.2108 52.5393ZM41.9851 51.2593L41.8549 50.5207C41.447 50.5926 41.1746 50.9816 41.2465 51.3895L41.9851 51.2593ZM43.2653 51.0335L43.3956 51.7721C43.5915 51.7376 43.7656 51.6267 43.8797 51.4637C43.9938 51.3008 44.0385 51.0992 44.0039 50.9033L43.2653 51.0335ZM43.0396 49.7535L42.9094 49.0149C42.7135 49.0494 42.5393 49.1604 42.4253 49.3233C42.3112 49.4863 42.2665 49.6879 42.301 49.8837L43.0396 49.7535ZM44.3192 49.5279L44.4494 50.2665C44.6453 50.232 44.8195 50.121 44.9336 49.9581C45.0477 49.7951 45.0924 49.5935 45.0578 49.3976L44.3192 49.5279ZM44.2237 48.9864L45.5043 48.7606L45.2438 47.2834L43.9633 47.5092L44.2237 48.9864ZM45.8042 47.4076L42.7927 45.2989L41.9323 46.5277L44.9438 48.6364L45.8042 47.4076ZM41.6241 46.0446L41.6241 46.0446L43.1009 45.7821L43.1009 45.7821L41.6241 46.0446ZM42.7927 45.299L42.7926 45.2989L41.9323 46.5277L41.9323 46.5277L42.7927 45.299ZM41.7481 45.4831L40.6937 46.9889L41.9224 47.8493L42.9768 46.3435L41.7481 45.4831ZM41.1778 46.6805L41.1774 46.6806L41.4379 48.1578L41.4383 48.1577L41.1778 46.6805ZM40.5691 47.5494L40.5691 47.5498L42.0464 47.2893L42.0463 47.289L40.5691 47.5494ZM40.6934 46.9894L38.5851 50.0004L39.8138 50.8607L41.9221 47.8498L40.6934 46.9894ZM39.0692 49.6919L39.0691 49.692L39.3295 51.1692L39.3297 51.1692L39.0692 49.6919ZM38.4607 50.5608L38.4607 50.5609L39.9379 50.3005L39.9379 50.3003L38.4607 50.5608ZM38.585 50.0005L37.5307 51.5062L38.7594 52.3665L39.8137 50.8609L38.585 50.0005ZM37.7149 52.5507L37.7149 52.5508L38.5753 51.322L38.5752 51.322L37.7149 52.5507ZM38.0149 51.1978L38.0148 51.1978L38.2753 52.675L38.2753 52.675L38.0149 51.1978ZM37.7148 52.5508L40.7264 54.6595L41.5867 53.4307L38.5752 51.3221L37.7148 52.5508ZM41.8952 53.9149L41.6694 52.6347L40.1922 52.8952L40.418 54.1753L41.8952 53.9149ZM41.0611 53.5036L42.3411 53.2779L42.0806 51.8007L40.8006 52.0264L41.0611 53.5036ZM42.9494 52.409L42.7237 51.129L41.2465 51.3895L41.4722 52.6695L42.9494 52.409ZM42.1154 51.9979L43.3956 51.7721L43.1351 50.2949L41.8549 50.5207L42.1154 51.9979ZM44.0039 50.9033L43.7782 49.6233L42.301 49.8837L42.5267 51.1638L44.0039 50.9033ZM43.1699 50.4921L44.4494 50.2665L44.189 48.7893L42.9094 49.0149L43.1699 50.4921ZM45.0578 49.3976L44.8321 48.1176L43.3549 48.378L43.5806 49.6581L45.0578 49.3976Z" fill="#222222"/>
<path fill-rule="evenodd" clip-rule="evenodd" d="M18.5701 38.2299L20.0759 39.2843L20.0759 39.2842L20.0759 39.2842L20.0759 39.2842L22.1845 36.2728L22.1847 36.2728L22.1847 36.2726L23.2387 34.7672L23.2391 34.7672L23.239 34.7668L24.2932 33.2613L24.2934 33.2612L21.2818 31.1525L21.5076 32.4328L20.2276 32.6585L20.4532 33.9384L19.1731 34.1641L19.3988 35.4441L18.1187 35.6698L18.3444 36.9499L17.0644 37.1755L18.5701 38.2298L18.5701 38.2299L18.5701 38.2299Z" fill="white"/>
<path d="M20.0759 39.2843L20.6902 39.7144C20.4527 40.0538 19.985 40.1362 19.6457 39.8986L20.0759 39.2843ZM18.5701 38.2299L18.3758 37.5055C18.59 37.4481 18.8186 37.4884 19.0003 37.6156L18.5701 38.2299ZM20.0759 39.2842L19.4615 38.8541C19.6991 38.5148 20.1668 38.4323 20.5061 38.6699L20.0759 39.2842ZM20.0759 39.2842L20.8134 39.1479C20.8688 39.4473 20.7376 39.7505 20.4815 39.9151C20.2254 40.0798 19.8951 40.0732 19.6457 39.8986L20.0759 39.2842ZM20.0759 39.2842L19.3384 39.4206C19.3019 39.2228 19.3462 39.0187 19.4615 38.854L20.0759 39.2842ZM22.1845 36.2728L21.5702 35.8426C21.6843 35.6797 21.8584 35.5687 22.0543 35.5342L22.1845 36.2728ZM22.1847 36.2728L22.9233 36.1425C22.9952 36.5505 22.7228 36.9394 22.3149 37.0114L22.1847 36.2728ZM22.1847 36.2726L21.446 36.4029C21.4115 36.207 21.4562 36.0054 21.5703 35.8424L22.1847 36.2726ZM23.2387 34.7672L22.6244 34.3371C22.7385 34.1741 22.9126 34.0632 23.1085 34.0286L23.2387 34.7672ZM23.2391 34.7672L23.9777 34.6369C24.0496 35.0449 23.7772 35.4339 23.3693 35.5058L23.2391 34.7672ZM23.239 34.7668L22.5004 34.8971C22.4659 34.7012 22.5106 34.4996 22.6247 34.3366L23.239 34.7668ZM24.2932 33.2613L23.6789 32.8311C23.793 32.6681 23.9671 32.5572 24.163 32.5227L24.2932 33.2613ZM24.2934 33.2612L24.7236 32.6469C24.972 32.8209 25.0913 33.1274 25.0256 33.4236C24.9599 33.7197 24.7224 33.9472 24.4236 33.9998L24.2934 33.2612ZM21.2818 31.1525L20.5432 31.2828C20.4906 30.984 20.623 30.683 20.8789 30.52C21.1347 30.357 21.4635 30.3642 21.712 30.5382L21.2818 31.1525ZM21.5076 32.4328L22.2462 32.3025C22.3181 32.7105 22.0457 33.0995 21.6378 33.1714L21.5076 32.4328ZM20.2276 32.6585L19.489 32.7887C19.417 32.3808 19.6894 31.9918 20.0973 31.9199L20.2276 32.6585ZM20.4532 33.9384L21.1918 33.8081C21.2264 34.004 21.1817 34.2056 21.0676 34.3685C20.9535 34.5315 20.7794 34.6424 20.5835 34.677L20.4532 33.9384ZM19.1731 34.1641L18.4345 34.2943C18.4 34.0984 18.4447 33.8968 18.5588 33.7339C18.6729 33.571 18.847 33.46 19.0429 33.4255L19.1731 34.1641ZM19.3988 35.4441L20.1374 35.3138C20.2094 35.7218 19.937 36.1108 19.5291 36.1827L19.3988 35.4441ZM18.1187 35.6698L17.3801 35.8C17.3081 35.3921 17.5805 35.0031 17.9884 34.9312L18.1187 35.6698ZM18.3444 36.9499L19.083 36.8196C19.1549 37.2275 18.8825 37.6165 18.4746 37.6885L18.3444 36.9499ZM17.0644 37.1755L16.6342 37.7899C16.3857 37.6159 16.2665 37.3094 16.3322 37.0132C16.3978 36.7171 16.6354 36.4896 16.9341 36.4369L17.0644 37.1755ZM18.5701 38.2298L19.0002 37.6155C19.1632 37.7296 19.2741 37.9037 19.3087 38.0996L18.5701 38.2298ZM18.5701 38.2299L18.7644 38.9543C18.5612 39.0088 18.3446 38.9755 18.1672 38.8625C17.9898 38.7495 17.868 38.5673 17.8315 38.3602L18.5701 38.2299ZM19.6457 39.8986L18.1399 38.8443L19.0003 37.6156L20.5061 38.6699L19.6457 39.8986ZM20.6903 39.7144L20.6902 39.7144L19.4615 38.8541L19.4615 38.8541L20.6903 39.7144ZM19.6457 39.8986L19.6457 39.8986L20.5061 38.6699L20.5061 38.6699L19.6457 39.8986ZM20.8134 39.1479L20.8134 39.1479L19.3384 39.4206L19.3384 39.4206L20.8134 39.1479ZM22.7989 36.703L20.6903 39.7144L19.4615 38.854L21.5702 35.8426L22.7989 36.703ZM22.3149 37.0114L22.3148 37.0114L22.0543 35.5342L22.0544 35.5342L22.3149 37.0114ZM22.9233 36.1424L22.9233 36.1425L21.4461 36.403L21.446 36.4029L22.9233 36.1424ZM23.8531 35.1974L22.799 36.7028L21.5703 35.8424L22.6244 34.3371L23.8531 35.1974ZM23.3693 35.5058L23.369 35.5058L23.1085 34.0286L23.1089 34.0286L23.3693 35.5058ZM23.9776 34.6366L23.9777 34.6369L22.5005 34.8974L22.5004 34.8971L23.9776 34.6366ZM24.9076 33.6914L23.8534 35.197L22.6247 34.3366L23.6789 32.8311L24.9076 33.6914ZM24.4236 33.9998L24.4235 33.9999L24.163 32.5227L24.1631 32.5226L24.4236 33.9998ZM21.712 30.5382L24.7236 32.6469L23.8632 33.8756L20.8517 31.7669L21.712 30.5382ZM20.769 32.563L20.5432 31.2828L22.0204 31.0223L22.2462 32.3025L20.769 32.563ZM20.0973 31.9199L21.3773 31.6942L21.6378 33.1714L20.3578 33.3971L20.0973 31.9199ZM19.7146 34.0686L19.489 32.7887L20.9662 32.5282L21.1918 33.8081L19.7146 34.0686ZM19.0429 33.4255L20.323 33.1998L20.5835 34.677L19.3034 34.9027L19.0429 33.4255ZM18.6602 35.5743L18.4345 34.2943L19.9118 34.0338L20.1374 35.3138L18.6602 35.5743ZM17.9884 34.9312L19.2686 34.7055L19.5291 36.1827L18.2489 36.4084L17.9884 34.9312ZM17.6058 37.0801L17.3801 35.8L18.8573 35.5396L19.083 36.8196L17.6058 37.0801ZM16.9341 36.4369L18.2141 36.2112L18.4746 37.6885L17.1946 37.9142L16.9341 36.4369ZM18.1399 38.8442L16.6342 37.7899L17.4946 36.5612L19.0002 37.6155L18.1399 38.8442ZM17.8315 38.3602L17.8315 38.3601L19.3087 38.0996L19.3087 38.0997L17.8315 38.3602ZM18.7644 38.9543L18.7644 38.9543L18.3758 37.5055L18.3758 37.5055L18.7644 38.9543Z" fill="#222222"/>
</g>
</svg>
