<svg width="68" height="68" viewBox="0 0 68 68" fill="none" xmlns="http://www.w3.org/2000/svg">
<rect width="68" height="68" rx="20" fill="#FFF3F7"/>
<mask id="mask0_3210_38358" style="mask-type:alpha" maskUnits="userSpaceOnUse" x="14" y="14" width="40" height="40">
<rect x="14" y="14" width="40" height="40" fill="#BDBDBD"/>
</mask>
<g mask="url(#mask0_3210_38358)">
<path fill-rule="evenodd" clip-rule="evenodd" d="M44.3248 30.7286C46.1313 36.4305 42.973 42.5178 37.2716 44.3247C31.5692 46.1312 25.4819 42.9729 23.6754 37.2711C21.869 31.5687 25.0267 25.482 30.7286 23.6755C36.431 21.8686 42.5178 25.0268 44.3248 30.7286" fill="#FF4081"/>
<path fill-rule="evenodd" clip-rule="evenodd" d="M17.5957 42.75C17.4655 43.6803 18.2495 45.5 18.2495 45.5L21.1443 48.3247L23.7811 49.1667H44.6316C44.6316 49.1667 50.7799 47.425 50.7799 42.5667C48.0244 42.6554 46.5878 41.8333 44.8772 40.9167C43.1667 40 35.8568 42.75 33.4115 42.75C30.9662 42.75 30.3362 40 26.2007 40C22.0652 40 21.3727 43.0977 17.5957 42.75Z" fill="white"/>
<path d="M17.595 42.7501C17.595 42.7501 18.0561 42.7501 18.4111 42.7501C22.3051 42.7501 22.3051 40.0001 26.2 40.0001C30.0939 40.0001 30.0939 42.7501 33.9888 42.7501C37.8846 42.7501 37.8846 40.0001 41.7794 40.0001C45.6761 40.0001 45.6761 42.7501 49.5738 42.7501C49.9198 42.7501 50.4171 42.7501 50.4171 42.7501" stroke="black" stroke-width="1.5" stroke-linecap="round" stroke-linejoin="round"/>
<path d="M52.3334 35.4167C52.3334 35.4167 50.7501 35.902 50.5001 37.0343C50.2501 38.1666 50.5001 39.1225 50.5001 42.6961C50.5001 46.2697 47.2168 49.1667 43.1667 49.1667H24.8334C20.7833 49.1667 17.5001 46.2697 17.5001 42.6961C17.5001 39.1225 17.7501 38.1666 17.5001 37.0343C17.2501 35.902 16.5001 35.6666 15.6667 35.4167" stroke="black" stroke-width="1.5" stroke-linecap="round" stroke-linejoin="round"/>
<path d="M29.957 19.8333C29.2367 20.8374 29.2367 22.1613 29.957 23.1654C30.6776 24.1699 30.6776 25.4933 29.957 26.4978L29.4167 27.1666" stroke="black" stroke-width="1.5" stroke-linecap="round" stroke-linejoin="round"/>
<path d="M33.9516 19.8332C33.2313 20.8373 33.2313 22.1612 33.9516 23.1653C34.6723 24.1698 34.6723 25.4933 33.9516 26.4978L33.4114 27.1666" stroke="black" stroke-width="1.5" stroke-linecap="round" stroke-linejoin="round"/>
<path d="M37.9465 19.8332C37.2262 20.8373 37.2262 22.1612 37.9465 23.1653C38.6671 24.1698 38.6671 25.4933 37.9465 26.4978L37.4062 27.1666" stroke="black" stroke-width="1.5" stroke-linecap="round" stroke-linejoin="round"/>
<path d="M37.7897 32.8226C38.6666 32.3163 39.7878 32.6167 40.2941 33.4936V33.4936L32.3555 38.0769V38.0769C31.8493 37.2001 32.1497 36.0788 33.0266 35.5726L37.7897 32.8226Z" fill="white" stroke="black" stroke-width="1.5" stroke-linecap="round" stroke-linejoin="round"/>
<path d="M42.7983 34.1647L43.715 35.7524L34.9826 40.7941C34.5441 41.0472 33.9835 40.897 33.7304 40.4586V40.4586C33.4773 40.0201 33.6275 39.4595 34.0659 39.2064L42.7983 34.1647Z" fill="white" stroke="black" stroke-width="1.5" stroke-linecap="round" stroke-linejoin="round"/>
<path d="M43.0439 38.2567V38.2567C43.5502 39.1336 43.2498 40.2548 42.3729 40.7611L37.6098 43.5111C36.7329 44.0174 35.6116 43.7169 35.1054 42.84V42.84L43.0439 38.2567Z" fill="white" stroke="black" stroke-width="1.5" stroke-linecap="round" stroke-linejoin="round"/>
<path d="M33.0266 35.5725L37.6099 43.511V43.511C36.2946 44.2704 34.6128 43.8198 33.8534 42.5045L32.02 39.329C31.2607 38.0137 31.7113 36.3319 33.0266 35.5725V35.5725Z" fill="white" stroke="black" stroke-width="1.5" stroke-linecap="round" stroke-linejoin="round"/>
<path fill-rule="evenodd" clip-rule="evenodd" d="M48.8137 31.7501C48.434 31.0925 47.593 30.8672 46.9354 31.2469L42.5013 33.8069C41.2682 32.4057 39.1793 32.0201 37.5008 32.9892L36.9956 33.2808L41.579 41.2194L42.0842 40.9277C43.7626 39.9587 44.473 37.9569 43.8763 36.1885L48.3104 33.6284C48.968 33.2487 49.1934 32.4078 48.8137 31.7501Z" fill="white"/>
<path d="M42.5013 33.8069L41.9383 34.3024C42.1744 34.5706 42.5669 34.6351 42.8763 34.4564L42.5013 33.8069ZM37.5008 32.9892L37.8758 33.6387L37.5008 32.9892ZM36.9956 33.2808L36.6206 32.6313C36.4484 32.7308 36.3227 32.8946 36.2712 33.0867C36.2197 33.2788 36.2467 33.4836 36.3461 33.6558L36.9956 33.2808ZM41.579 41.2194L40.9295 41.5944C41.1366 41.9531 41.5953 42.076 41.954 41.8689L41.579 41.2194ZM42.0842 40.9277L42.4592 41.5772L42.0842 40.9277ZM43.8763 36.1885L43.5013 35.539C43.1919 35.7176 43.0514 36.0897 43.1657 36.4283L43.8763 36.1885ZM48.3104 33.6284L48.6854 34.278L48.3104 33.6284ZM47.3104 31.8964C47.6093 31.7238 47.9916 31.8262 48.1642 32.1251L49.4632 31.3751C48.8764 30.3588 47.5768 30.0105 46.5604 30.5973L47.3104 31.8964ZM42.8763 34.4564L47.3104 31.8964L46.5604 30.5973L42.1263 33.1574L42.8763 34.4564ZM37.8758 33.6387C39.2388 32.8517 40.9366 33.1642 41.9383 34.3024L43.0643 33.3114C41.5998 31.6473 39.1198 31.1884 37.1258 32.3396L37.8758 33.6387ZM37.3706 33.9303L37.8758 33.6387L37.1258 32.3396L36.6206 32.6313L37.3706 33.9303ZM42.2285 40.8444L37.6452 32.9058L36.3461 33.6558L40.9295 41.5944L42.2285 40.8444ZM41.7092 40.2782L41.204 40.5699L41.954 41.8689L42.4592 41.5772L41.7092 40.2782ZM43.1657 36.4283C43.6504 37.8648 43.0721 39.4913 41.7092 40.2782L42.4592 41.5772C44.453 40.4261 45.2957 38.049 44.5869 35.9487L43.1657 36.4283ZM47.9354 32.9789L43.5013 35.539L44.2513 36.838L48.6854 34.278L47.9354 32.9789ZM48.1642 32.1251C48.3368 32.4241 48.2343 32.8063 47.9354 32.9789L48.6854 34.278C49.7018 33.6912 50.05 32.3915 49.4632 31.3751L48.1642 32.1251Z" fill="black"/>
</g>
</svg>
