<svg width="68" height="68" viewBox="0 0 68 68" fill="none" xmlns="http://www.w3.org/2000/svg">
<rect width="68" height="68" rx="20" fill="#FFF3F7"/>
<mask id="mask0_3210_38360" style="mask-type:alpha" maskUnits="userSpaceOnUse" x="14" y="14" width="40" height="40">
<rect x="14" y="14" width="40" height="40" fill="#BDBDBD"/>
</mask>
<g mask="url(#mask0_3210_38360)">
<circle cx="34.0001" cy="32.3333" r="13.3333" fill="#FF4081"/>
<path fill-rule="evenodd" clip-rule="evenodd" d="M34 51.7471C43.665 51.7471 51.5 43.8567 51.5 34.1235C51.5 24.3903 43.665 16.5 34 16.5C24.335 16.5 16.5 24.3903 16.5 34.1235C16.5 43.8567 24.335 51.7471 34 51.7471ZM33.883 45.2435C41.0522 45.2435 46.8639 39.4317 46.8639 32.2625C46.8639 25.0933 41.0522 19.2816 33.883 19.2816C26.7138 19.2816 20.9021 25.0933 20.9021 32.2625C20.9021 39.4317 26.7138 45.2435 33.883 45.2435Z" fill="white"/>
<path d="M50.75 34.1235C50.75 43.4475 43.2458 50.9971 34 50.9971V52.4971C44.0842 52.4971 52.25 44.266 52.25 34.1235H50.75ZM34 17.25C43.2458 17.25 50.75 24.7996 50.75 34.1235H52.25C52.25 23.9811 44.0842 15.75 34 15.75V17.25ZM17.25 34.1235C17.25 24.7996 24.7542 17.25 34 17.25V15.75C23.9158 15.75 15.75 23.9811 15.75 34.1235H17.25ZM34 50.9971C24.7542 50.9971 17.25 43.4475 17.25 34.1235H15.75C15.75 44.266 23.9158 52.4971 34 52.4971V50.9971ZM46.1139 32.2625C46.1139 39.0175 40.638 44.4935 33.883 44.4935V45.9935C41.4664 45.9935 47.6139 39.8459 47.6139 32.2625H46.1139ZM33.883 20.0316C40.638 20.0316 46.1139 25.5076 46.1139 32.2625H47.6139C47.6139 24.6791 41.4664 18.5316 33.883 18.5316V20.0316ZM21.6521 32.2625C21.6521 25.5076 27.128 20.0316 33.883 20.0316V18.5316C26.2996 18.5316 20.1521 24.6791 20.1521 32.2625H21.6521ZM33.883 44.4935C27.128 44.4935 21.6521 39.0175 21.6521 32.2625H20.1521C20.1521 39.8459 26.2996 45.9935 33.883 45.9935V44.4935Z" fill="black"/>
<path d="M35.6499 38.6247C35.9908 33.7488 39.2969 32.9922 39.48 30.3739C39.5527 29.3343 38.7618 28.4321 37.7135 28.3588C37.1908 28.3223 36.7029 28.4987 36.3359 28.8136" stroke="black" stroke-width="1.35" stroke-linecap="round" stroke-linejoin="round"/>
<path fill-rule="evenodd" clip-rule="evenodd" d="M24.7403 34.0933C22.2295 32.5549 23.1481 29.9333 23.3683 29.4841C23.5854 29.0409 23.7983 29.2718 24.4259 28.763C25.2301 28.4396 26.2312 28.4576 27.0678 28.8202L28.3428 28.2314L28.4837 29.8418C28.6477 30.1025 28.7904 30.4027 28.899 30.7585C29.3585 32.2664 29.0275 33.0149 30.1842 33.5043C31.6356 34.1185 36.7767 35.6594 35.9738 38.8698C35.679 40.0476 28.9733 39.062 26.179 37.2502C26.179 37.2502 24.5795 36.3931 24.7403 34.0933Z" fill="white" stroke="black" stroke-width="1.35" stroke-linecap="round" stroke-linejoin="round"/>
<path d="M26.5768 29.1064L27.5649 28.6051" stroke="black" stroke-width="1.35" stroke-linecap="round" stroke-linejoin="round"/>
<path fill-rule="evenodd" clip-rule="evenodd" d="M31.6187 38.5577C31.6187 38.5577 31.9272 42.0748 35.9883 42.3588C36.5701 43.6825 36.5176 43.963 36.5176 43.963C36.5176 43.963 36.0052 44.0494 35.9722 44.5212C36.8336 44.5753 37.4523 44.6247 37.4523 44.6247L37.672 43.6686C37.672 43.6686 37.4175 42.3994 37.5134 41.0286C36.0185 40.306 35.927 39.3802 36.0211 38.0349" fill="white"/>
<path d="M31.6187 38.5577C31.6187 38.5577 31.9272 42.0748 35.9883 42.3588C36.5701 43.6825 36.5176 43.963 36.5176 43.963C36.5176 43.963 36.0052 44.0494 35.9722 44.5212C36.8336 44.5753 37.4523 44.6247 37.4523 44.6247L37.672 43.6686C37.672 43.6686 37.4175 42.3994 37.5134 41.0286C36.0185 40.306 35.927 39.3802 36.0211 38.0349" stroke="black" stroke-width="1.35" stroke-linecap="round" stroke-linejoin="round"/>
<path fill-rule="evenodd" clip-rule="evenodd" d="M27.0585 35.0865L22.3977 31.3355C22.3977 31.3355 22.4417 30.3848 21.6784 30.344C20.7274 30.3128 21.0472 32.1413 21.0472 32.1413L26.3488 36.9891" fill="white"/>
<path d="M27.0585 35.0865L22.3977 31.3355C22.3977 31.3355 22.4417 30.3848 21.6784 30.344C20.7274 30.3128 21.0472 32.1413 21.0472 32.1413L26.3488 36.9891" stroke="black" stroke-width="1.35" stroke-linecap="round" stroke-linejoin="round"/>
</g>
</svg>
