<svg width="68" height="68" viewBox="0 0 68 68" fill="none" xmlns="http://www.w3.org/2000/svg">
<rect opacity="0.9" width="68" height="68" rx="20" fill="#FFF2F6"/>
<mask id="mask0_3210_38346" style="mask-type:alpha" maskUnits="userSpaceOnUse" x="14" y="14" width="40" height="40">
<rect x="14" y="14" width="40" height="40" fill="#BDBDBD"/>
</mask>
<g mask="url(#mask0_3210_38346)">
<path fill-rule="evenodd" clip-rule="evenodd" d="M43.5305 20.9803C45.198 26.2435 42.2827 31.8625 37.0199 33.5305C31.7561 35.198 26.137 32.2827 24.4695 27.0195C22.802 21.7558 25.7169 16.1372 30.9801 14.4697C36.2439 12.8017 41.8625 15.717 43.5305 20.9803" fill="#FF4081"/>
<path d="M16.5 42.6842C16.5 33.6012 22.2895 31.77 22.2895 26.8925C22.2895 24.9559 20.7697 23.386 18.895 23.386C17.9603 23.386 17.1139 23.7762 16.5 24.4076" stroke="black" stroke-width="1.5" stroke-linecap="round" stroke-linejoin="round"/>
<ellipse cx="33.8684" cy="42.2018" rx="17.3684" ry="10.1316" fill="white" stroke="black" stroke-width="1.5" stroke-linecap="round" stroke-linejoin="round"/>
<path fill-rule="evenodd" clip-rule="evenodd" d="M40.6755 24.388C40.6755 26.5401 38.9115 28.2847 36.7354 28.2847C36.1311 28.2847 35.5586 28.1502 35.0468 27.9097V33.8392C35.0468 34.4609 34.5428 34.9649 33.9211 34.9649C33.2994 34.9649 32.7954 34.4609 32.7954 33.8392V27.9098C32.2836 28.1502 31.7111 28.2847 31.1068 28.2847C28.9308 28.2847 27.1667 26.5401 27.1667 24.388C27.1667 22.2359 28.9308 20.4912 31.1068 20.4912C32.2093 20.4912 33.206 20.9391 33.9211 21.6608C34.6362 20.939 35.6329 20.4912 36.7354 20.4912C38.9115 20.4912 40.6755 22.2358 40.6755 24.388ZM32.7954 24.3717C32.7954 24.3771 32.7954 24.3825 32.7954 24.388C32.7954 24.3935 32.7954 24.399 32.7954 24.4044C32.7865 25.3193 32.034 26.0582 31.1069 26.0582C30.1743 26.0582 29.4183 25.3105 29.4183 24.3881C29.4183 23.4658 30.1743 22.7181 31.1069 22.7181C32.0339 22.7181 32.7865 23.4569 32.7954 24.3717ZM33.9211 27.1152C33.9399 27.1341 33.9588 27.1528 33.978 27.1714H33.8642C33.8834 27.1528 33.9024 27.1341 33.9211 27.1152ZM38.4241 24.3881C38.4241 25.3104 37.6681 26.0581 36.7355 26.0581C35.8029 26.0581 35.0469 25.3104 35.0469 24.3881C35.0469 23.4658 35.8029 22.7181 36.7355 22.7181C37.6681 22.7181 38.4241 23.4658 38.4241 24.3881Z" fill="white"/>
<path d="M35.0468 27.9097L35.3658 27.2309C35.1334 27.1218 34.8614 27.139 34.6448 27.2766C34.4281 27.4142 34.2968 27.6531 34.2968 27.9097H35.0468ZM32.7954 27.9098H33.5454C33.5454 27.6531 33.4141 27.4142 33.1974 27.2766C32.9808 27.139 32.7088 27.1218 32.4764 27.2309L32.7954 27.9098ZM33.9211 21.6608L33.3883 22.1887C33.5292 22.3308 33.721 22.4108 33.9211 22.4108C34.1212 22.4108 34.313 22.3308 34.4539 22.1887L33.9211 21.6608ZM32.7954 24.3717L33.5455 24.3748L33.5454 24.3644L32.7954 24.3717ZM32.7954 24.4044L33.5454 24.4117L33.5454 24.4013L32.7954 24.4044ZM33.9211 27.1152L34.4539 26.5873C34.313 26.4451 34.1212 26.3652 33.9211 26.3652C33.721 26.3652 33.5292 26.4451 33.3884 26.5873L33.9211 27.1152ZM33.978 27.1714V27.9214C34.2835 27.9214 34.5585 27.7361 34.6731 27.453C34.7878 27.1698 34.7193 26.8454 34.4999 26.6328L33.978 27.1714ZM33.8642 27.1714L33.3423 26.6328C33.1229 26.8454 33.0544 27.1698 33.1691 27.453C33.2838 27.7361 33.5588 27.9214 33.8642 27.9214V27.1714ZM36.7354 29.0347C39.3178 29.0347 41.4255 26.9621 41.4255 24.388H39.9255C39.9255 26.1181 38.5051 27.5347 36.7354 27.5347V29.0347ZM34.7279 28.5885C35.3376 28.875 36.0188 29.0347 36.7354 29.0347V27.5347C36.2435 27.5347 35.7797 27.4254 35.3658 27.2309L34.7279 28.5885ZM34.2968 27.9097V33.8392H35.7968V27.9097H34.2968ZM34.2968 33.8392C34.2968 34.0467 34.1286 34.2149 33.9211 34.2149V35.7149C34.957 35.7149 35.7968 34.8751 35.7968 33.8392H34.2968ZM33.9211 34.2149C33.7136 34.2149 33.5454 34.0467 33.5454 33.8392H32.0454C32.0454 34.8751 32.8852 35.7149 33.9211 35.7149V34.2149ZM33.5454 33.8392V27.9098H32.0454V33.8392H33.5454ZM32.4764 27.2309C32.0626 27.4254 31.5988 27.5347 31.1068 27.5347V29.0347C31.8234 29.0347 32.5046 28.875 33.1143 28.5886L32.4764 27.2309ZM31.1068 27.5347C29.3371 27.5347 27.9167 26.1181 27.9167 24.388H26.4167C26.4167 26.9621 28.5244 29.0347 31.1068 29.0347V27.5347ZM27.9167 24.388C27.9167 22.6579 29.3371 21.2412 31.1068 21.2412V19.7412C28.5244 19.7412 26.4167 21.8139 26.4167 24.388H27.9167ZM31.1068 21.2412C32.0023 21.2412 32.8092 21.6042 33.3883 22.1887L34.4539 21.1329C33.6028 20.274 32.4162 19.7412 31.1068 19.7412V21.2412ZM36.7354 19.7412C35.426 19.7412 34.2394 20.2739 33.3883 21.1329L34.4539 22.1887C35.033 21.6041 35.8399 21.2412 36.7354 21.2412V19.7412ZM41.4255 24.388C41.4255 21.8138 39.3178 19.7412 36.7354 19.7412V21.2412C38.5051 21.2412 39.9255 22.6579 39.9255 24.388H41.4255ZM32.0454 24.3686C32.0454 24.3751 32.0454 24.3815 32.0454 24.388H33.5454C33.5454 24.3836 33.5454 24.3792 33.5454 24.3748L32.0454 24.3686ZM32.0454 24.388C32.0454 24.3945 32.0454 24.401 32.0454 24.4076L33.5454 24.4013C33.5454 24.3969 33.5454 24.3924 33.5454 24.388H32.0454ZM32.0454 24.3972C32.0406 24.8934 31.6299 25.3082 31.1069 25.3082V26.8082C32.438 26.8082 33.5325 25.7452 33.5454 24.4117L32.0454 24.3972ZM31.1069 25.3082C30.5807 25.3082 30.1683 24.8884 30.1683 24.3881H28.6683C28.6683 25.7325 29.7679 26.8082 31.1069 26.8082V25.3082ZM30.1683 24.3881C30.1683 23.8878 30.5807 23.4681 31.1069 23.4681V21.9681C29.7679 21.9681 28.6683 23.0438 28.6683 24.3881H30.1683ZM31.1069 23.4681C31.6299 23.4681 32.0406 23.8829 32.0454 24.379L33.5454 24.3644C33.5324 23.031 32.438 21.9681 31.1069 21.9681V23.4681ZM33.3884 27.643C33.4107 27.6656 33.4333 27.6879 33.4561 27.71L34.4999 26.6328C34.4844 26.6178 34.4691 26.6026 34.4539 26.5873L33.3884 27.643ZM33.8642 27.9214H33.978V26.4214H33.8642V27.9214ZM33.3884 26.5873C33.3732 26.6026 33.3578 26.6178 33.3423 26.6328L34.3862 27.71C34.409 27.6879 34.4316 27.6656 34.4539 27.643L33.3884 26.5873ZM36.7355 26.8081C38.0745 26.8081 39.1741 25.7324 39.1741 24.3881H37.6741C37.6741 24.8884 37.2617 25.3081 36.7355 25.3081V26.8081ZM34.2969 24.3881C34.2969 25.7324 35.3965 26.8081 36.7355 26.8081V25.3081C36.2093 25.3081 35.7969 24.8884 35.7969 24.3881H34.2969ZM36.7355 21.9681C35.3965 21.9681 34.2969 23.0438 34.2969 24.3881H35.7969C35.7969 23.8878 36.2093 23.4681 36.7355 23.4681V21.9681ZM39.1741 24.3881C39.1741 23.0438 38.0745 21.9681 36.7355 21.9681V23.4681C37.2617 23.4681 37.6741 23.8878 37.6741 24.3881H39.1741Z" fill="black"/>
<path fill-rule="evenodd" clip-rule="evenodd" d="M47.4826 40.5439C47.4826 41.0765 47.0503 41.5088 46.5176 41.5088C45.985 41.5088 45.5527 41.0765 45.5527 40.5439C45.5527 40.0113 45.985 39.579 46.5176 39.579C47.0503 39.579 47.4826 40.0113 47.4826 40.5439" fill="black"/>
<path fill-rule="evenodd" clip-rule="evenodd" d="M45.6414 37.4581C47.4085 35.6909 47.4085 32.8258 45.6414 31.0586C43.8742 29.2915 41.0091 29.2915 39.2419 31.0586C37.4748 32.8258 37.4748 35.6909 39.2419 37.4581" fill="white"/>
<path d="M45.6414 37.4581C47.4085 35.6909 47.4085 32.8258 45.6414 31.0586C43.8742 29.2915 41.0091 29.2915 39.2419 31.0586C37.4748 32.8258 37.4748 35.6909 39.2419 37.4581" stroke="black" stroke-width="1.5" stroke-linecap="round" stroke-linejoin="round"/>
</g>
</svg>
