<svg width="68" height="68" viewBox="0 0 68 68" fill="none" xmlns="http://www.w3.org/2000/svg">
<rect opacity="0.9" width="68" height="68" rx="20" fill="#FFF2F6"/>
<mask id="mask0_3210_38344" style="mask-type:alpha" maskUnits="userSpaceOnUse" x="14" y="14" width="40" height="40">
<rect x="14" y="14" width="40" height="40" fill="#BDBDBD"/>
</mask>
<g mask="url(#mask0_3210_38344)">
<path fill-rule="evenodd" clip-rule="evenodd" d="M36.8248 31.562C38.6313 37.2638 35.473 43.3511 29.7716 45.1581C24.0692 46.9645 17.9819 43.8063 16.1754 38.1044C14.369 32.4021 17.5267 26.3153 23.2286 24.5089C28.931 22.7019 35.0178 25.8601 36.8248 31.562" fill="#FF4081"/>
<path fill-rule="evenodd" clip-rule="evenodd" d="M47.3362 26.3761C52.243 26.3761 45.8891 26.6707 44.7354 31.7842C43.9262 35.3713 51.1104 37.5691 48.8469 37.5691C47.5847 38.3405 47.4275 39.2461 46.6558 41.4958C47.6703 43.0149 49.1964 45.385 51.3145 45.385C52.5387 45.385 53.1666 47.625 53.1666 47.625H48.8469C48.8469 47.625 42.8328 42.8792 42.8328 42.0251C42.8328 41.171 44.2313 39.4049 44.2313 39.4049" fill="white"/>
<path d="M47.3362 26.3761C52.243 26.3761 45.8891 26.6707 44.7354 31.7842C43.9262 35.3713 51.1104 37.5691 48.8469 37.5691C47.5847 38.3405 47.4275 39.2461 46.6558 41.4958C47.6703 43.0149 49.1964 45.385 51.3145 45.385C52.5387 45.385 53.1666 47.625 53.1666 47.625H48.8469C48.8469 47.625 42.8328 42.8792 42.8328 42.0251C42.8328 41.171 44.2313 39.4049 44.2313 39.4049" stroke="black" stroke-width="1.5" stroke-linecap="round" stroke-linejoin="round"/>
<path fill-rule="evenodd" clip-rule="evenodd" d="M34.2262 33.4882C33.1987 27.3082 31.2383 23.6187 29.5132 21.6108C28.2266 20.1133 27.2753 19.5487 26.4223 19.3367C25.5693 19.1246 25.2844 18.8773 25.2614 18.2592C25.2383 17.6411 25.7207 17.1213 26.3388 17.0983C27.8678 17.0412 29.4491 18.0989 31.2122 20.151C33.0168 22.2514 34.9501 25.7824 36.4254 32.9769" fill="white"/>
<path d="M34.2262 33.4882C33.1987 27.3082 31.2383 23.6187 29.5132 21.6108C28.2266 20.1133 27.2753 19.5487 26.4223 19.3367C25.5693 19.1246 25.2844 18.8773 25.2614 18.2592C25.2383 17.6411 25.7207 17.1213 26.3388 17.0983C27.8678 17.0412 29.4491 18.0989 31.2122 20.151C33.0168 22.2514 34.9501 25.7824 36.4254 32.9769" stroke="black" stroke-width="1.5" stroke-linecap="round" stroke-linejoin="round"/>
<path fill-rule="evenodd" clip-rule="evenodd" d="M51.9922 25.3913C46.0497 22.5382 38.8345 21.8958 35.1883 26.9206C30.7276 34.377 41.3951 41.8196 41.3951 41.8196L44.9435 36.3937L51.9922 34.13" fill="white"/>
<path d="M51.9922 25.3913C46.0497 22.5382 38.8345 21.8958 35.1883 26.9206C30.7276 34.377 41.3951 41.8196 41.3951 41.8196L44.9435 36.3937L51.9922 34.13" stroke="black" stroke-width="1.5" stroke-linecap="round" stroke-linejoin="round"/>
<path fill-rule="evenodd" clip-rule="evenodd" d="M43.9763 26.3761C48.8831 26.3761 52.9482 29.9206 51.7946 35.0341C50.9853 38.6213 48.151 39.8654 45.8874 39.8654C44.6252 40.6368 44.3259 40.7981 43.5391 41.4642C44.5537 42.9832 45.8365 45.385 47.9547 45.385C49.1789 45.385 49.8068 47.625 49.8068 47.625H45.487C45.487 47.625 39.4729 42.8792 39.4729 42.0251C39.4729 41.171 40.8714 39.4049 40.8714 39.4049" fill="white"/>
<path d="M43.9763 26.3761C48.8831 26.3761 52.9482 29.9206 51.7946 35.0341C50.9853 38.6213 48.151 39.8654 45.8874 39.8654C44.6252 40.6368 44.3259 40.7981 43.5391 41.4642C44.5537 42.9832 45.8365 45.385 47.9547 45.385C49.1789 45.385 49.8068 47.625 49.8068 47.625H45.487C45.487 47.625 39.4729 42.8792 39.4729 42.0251C39.4729 41.171 40.8714 39.4049 40.8714 39.4049" stroke="black" stroke-width="1.5" stroke-linecap="round" stroke-linejoin="round"/>
<path d="M14.8333 47.6551H52.9126" stroke="black" stroke-width="1.5" stroke-linecap="round" stroke-linejoin="round"/>
<path fill-rule="evenodd" clip-rule="evenodd" d="M27.6205 40.6667C25.3388 40.6667 25.3388 42.3026 23.5158 43.1594C21.6929 44.0163 21.5286 47.4799 26.2885 47.4799C32.3455 47.4799 31.4573 40.6667 27.6205 40.6667Z" fill="white" stroke="black" stroke-width="1.5" stroke-linecap="round" stroke-linejoin="round"/>
</g>
</svg>
