<svg width="68" height="68" viewBox="0 0 68 68" fill="none" xmlns="http://www.w3.org/2000/svg">
<rect opacity="0.9" width="68" height="68" rx="20" fill="#FFF2F6"/>
<mask id="mask0_3210_38347" style="mask-type:alpha" maskUnits="userSpaceOnUse" x="14" y="14" width="40" height="40">
<rect x="14" y="14" width="40" height="40" fill="#BDBDBD"/>
</mask>
<g mask="url(#mask0_3210_38347)">
<path fill-rule="evenodd" clip-rule="evenodd" d="M33.5305 38.4803C35.198 43.7435 32.2827 49.3625 27.0199 51.0305C21.7561 52.698 16.137 49.7827 14.4695 44.5195C12.802 39.2558 15.7169 33.6372 20.9801 31.9697C26.2439 30.3017 31.8625 33.217 33.5305 38.4803" fill="#FF4081"/>
<path fill-rule="evenodd" clip-rule="evenodd" d="M50.4837 32.5679H20.0771V48.6655H50.0266C50.0299 48.6655 50.0333 48.6656 50.0366 48.6656C50.0399 48.6656 50.0432 48.6655 50.0466 48.6655H50.4837V48.5841C52.0006 48.0262 53.1667 44.6716 53.1667 40.6168C53.1667 36.5619 52.0006 33.2073 50.4837 32.6495V32.5679Z" fill="white"/>
<path d="M20.0771 32.5679V31.8179C19.6629 31.8179 19.3271 32.1537 19.3271 32.5679H20.0771ZM50.4837 32.5679H51.2337C51.2337 32.1537 50.8979 31.8179 50.4837 31.8179V32.5679ZM20.0771 48.6655H19.3271C19.3271 49.0797 19.6629 49.4155 20.0771 49.4155V48.6655ZM50.0266 48.6655L50.0326 47.9155H50.0266V48.6655ZM50.0466 48.6655V47.9155L50.0405 47.9155L50.0466 48.6655ZM50.4837 48.6655V49.4155C50.8979 49.4155 51.2337 49.0797 51.2337 48.6655H50.4837ZM50.4837 48.5841L50.2248 47.8802C49.9298 47.9887 49.7337 48.2697 49.7337 48.5841H50.4837ZM50.4837 32.6495H49.7337C49.7337 32.9638 49.9298 33.2449 50.2248 33.3534L50.4837 32.6495ZM20.0771 33.3179H50.4837V31.8179H20.0771V33.3179ZM20.8271 48.6655V32.5679H19.3271V48.6655H20.8271ZM50.0266 47.9155H20.0771V49.4155H50.0266V47.9155ZM50.0366 47.9156C50.0353 47.9156 50.0339 47.9155 50.0326 47.9155L50.0206 49.4155C50.0259 49.4155 50.0312 49.4156 50.0366 49.4156V47.9156ZM50.0405 47.9155C50.0392 47.9155 50.0379 47.9156 50.0366 47.9156V49.4156C50.0419 49.4156 50.0472 49.4155 50.0526 49.4155L50.0405 47.9155ZM50.4837 47.9155H50.0466V49.4155H50.4837V47.9155ZM49.7337 48.5841V48.6655H51.2337V48.5841H49.7337ZM52.4167 40.6168C52.4167 42.5791 52.1336 44.3475 51.6839 45.6704C51.4589 46.3324 51.1996 46.8603 50.9305 47.241C50.6566 47.6284 50.4091 47.8124 50.2248 47.8802L50.7426 49.288C51.3167 49.0768 51.7839 48.6323 52.1552 48.107C52.5313 47.5751 52.848 46.9064 53.1041 46.1532C53.6166 44.6456 53.9167 42.7093 53.9167 40.6168H52.4167ZM50.2248 33.3534C50.4091 33.4212 50.6566 33.6051 50.9305 33.9925C51.1996 34.3732 51.4589 34.9011 51.6839 35.5631C52.1336 36.886 52.4167 38.6544 52.4167 40.6168H53.9167C53.9167 38.5243 53.6166 36.588 53.1041 35.0803C52.848 34.3271 52.5313 33.6584 52.1552 33.1265C51.7839 32.6013 51.3167 32.1567 50.7426 31.9456L50.2248 33.3534ZM49.7337 32.5679V32.6495H51.2337V32.5679H49.7337Z" fill="black"/>
<path fill-rule="evenodd" clip-rule="evenodd" d="M33.5305 37.647C35.198 42.9102 32.2827 48.5292 27.0199 50.1972C21.7561 51.8647 16.137 48.9494 14.4695 43.6862C12.802 38.4224 15.7169 32.8039 20.9801 31.1364C26.2439 29.4684 31.8625 32.3837 33.5305 37.647" fill="#FF4081"/>
<path fill-rule="evenodd" clip-rule="evenodd" d="M43.0766 32.3768C43.0766 32.2624 43.0721 29.4071 43.0679 29.2941C43.0733 29.1925 43.0766 29.0862 43.0766 28.9718C43.0766 22.3668 41.3871 18.0678 41.3871 18.0678L37.9138 20.577H33.8867L33.8871 20.5779C33.878 20.5779 33.8693 20.577 33.8601 20.577H29.8331L26.3601 18.0678C26.3601 18.0678 24.6702 22.3668 24.6702 28.9718V28.9794C24.6544 29.1963 24.644 31.7202 24.644 31.941" fill="white"/>
<path d="M43.0766 32.3768C43.0766 32.2624 43.0721 29.4071 43.0679 29.2941C43.0733 29.1925 43.0766 29.0862 43.0766 28.9718C43.0766 22.3668 41.3871 18.0678 41.3871 18.0678L37.9138 20.577H33.8867L33.8871 20.5779C33.878 20.5779 33.8693 20.577 33.8601 20.577H29.8331L26.3601 18.0678C26.3601 18.0678 24.6702 22.3668 24.6702 28.9718V28.9794C24.6544 29.1963 24.644 31.7202 24.644 31.941" stroke="black" stroke-width="1.5" stroke-linecap="round" stroke-linejoin="round"/>
<path fill-rule="evenodd" clip-rule="evenodd" d="M30.8089 25.4135C30.8089 25.9075 30.4085 26.3078 29.9143 26.3078C29.4202 26.3078 29.0203 25.9075 29.0203 25.4135C29.0203 24.9195 29.4202 24.5192 29.9143 24.5192C30.4085 24.5192 30.8089 24.9195 30.8089 25.4135" fill="black"/>
<path fill-rule="evenodd" clip-rule="evenodd" d="M38.8577 25.4135C38.8577 25.9075 38.4573 26.3078 37.9632 26.3078C37.469 26.3078 37.0691 25.9075 37.0691 25.4135C37.0691 24.9195 37.469 24.5192 37.9632 24.5192C38.4573 24.5192 38.8577 24.9195 38.8577 25.4135" fill="black"/>
<path d="M43.3293 30.7793C43.3293 30.6792 43.3247 28.1809 43.3204 28.082C43.326 27.9931 43.3293 27.9001 43.3293 27.7999C43.3293 22.0206 41.6079 18.259 41.6079 18.259L38.0691 20.4545H33.966L33.9664 20.4553C33.9571 20.4553 33.9482 20.4545 33.9389 20.4545H29.8358L26.2973 18.259C26.2973 18.259 24.5755 22.0206 24.5755 27.7999V27.8066C24.5594 27.9964 24.5488 30.2048 24.5488 30.398" stroke="black" stroke-width="1.395" stroke-linecap="round" stroke-linejoin="round"/>
<path fill-rule="evenodd" clip-rule="evenodd" d="M43.1911 32.5678H39.8906C39.3202 32.5678 38.8579 32.1394 38.8579 31.6106V31.4777C38.8579 30.1041 40.0592 28.9906 41.5411 28.9906C43.0229 28.9906 44.2238 30.1041 44.2238 31.4777V31.6106C44.2238 32.1394 43.7615 32.5678 43.1911 32.5678Z" fill="white" stroke="black" stroke-width="1.5" stroke-linecap="round" stroke-linejoin="round"/>
<path fill-rule="evenodd" clip-rule="evenodd" d="M27.9871 32.5678H24.6869C24.1165 32.5678 23.6543 32.1394 23.6543 31.6106V31.4777C23.6543 30.1041 24.8555 28.9906 26.3372 28.9906C27.8189 28.9906 29.0202 30.1041 29.0202 31.4777V31.6106C29.0202 32.1394 28.5575 32.5678 27.9871 32.5678Z" fill="white" stroke="black" stroke-width="1.5" stroke-linecap="round" stroke-linejoin="round"/>
<path d="M20.0771 32.5679V31.8704C19.6919 31.8704 19.3796 32.1827 19.3796 32.5679H20.0771ZM50.4837 32.5679H51.1812C51.1812 32.1827 50.8689 31.8704 50.4837 31.8704V32.5679ZM20.0771 48.6655H19.3796C19.3796 49.0507 19.6919 49.363 20.0771 49.363V48.6655ZM50.0266 48.6655L50.0322 47.968H50.0266V48.6655ZM50.0466 48.6655L50.0466 47.968L50.041 47.968L50.0466 48.6655ZM50.4837 48.6655V49.363C50.8689 49.363 51.1812 49.0507 51.1812 48.6655H50.4837ZM50.4837 48.5841L50.2429 47.9294C49.9685 48.0303 49.7862 48.2917 49.7862 48.5841H50.4837ZM50.4837 32.6495H49.7862C49.7862 32.9418 49.9685 33.2032 50.2429 33.3041L50.4837 32.6495ZM20.0771 33.2654H50.4837V31.8704H20.0771V33.2654ZM20.7746 48.6655V32.5679H19.3796V48.6655H20.7746ZM50.0266 47.968H20.0771V49.363H50.0266V47.968ZM50.0366 47.9681C50.0351 47.9681 50.0337 47.968 50.0322 47.968L50.021 49.363C50.0262 49.363 50.0314 49.3631 50.0366 49.3631V47.9681ZM50.041 47.968C50.0395 47.968 50.038 47.9681 50.0366 47.9681V49.3631C50.0418 49.3631 50.047 49.363 50.0522 49.363L50.041 47.968ZM50.4837 47.968H50.0466V49.363H50.4837V47.968ZM49.7862 48.5841V48.6655H51.1812V48.5841H49.7862ZM52.4692 40.6168C52.4692 42.5837 52.1856 44.358 51.7336 45.6873C51.5075 46.3525 51.2463 46.8854 50.9733 47.2713C50.696 47.6635 50.4409 47.8566 50.2429 47.9294L50.7244 49.2387C51.2849 49.0326 51.7444 48.5971 52.1124 48.0767C52.4847 47.5501 52.7994 46.8863 53.0544 46.1363C53.5647 44.6351 53.8642 42.7047 53.8642 40.6168H52.4692ZM50.2429 33.3041C50.4409 33.3769 50.696 33.57 50.9733 33.9622C51.2463 34.3482 51.5075 34.881 51.7336 35.5462C52.1856 36.8755 52.4692 38.6498 52.4692 40.6168H53.8642C53.8642 38.5288 53.5647 36.5984 53.0544 35.0972C52.7994 34.3472 52.4847 33.6834 52.1124 33.1568C51.7444 32.6364 51.2849 32.201 50.7244 31.9948L50.2429 33.3041ZM49.7862 32.5679V32.6495H51.1812V32.5679H49.7862Z" fill="black"/>
<ellipse cx="19.6301" cy="40.6167" rx="3.13008" ry="8.04879" fill="#FF4081" stroke="black" stroke-width="1.5" stroke-linecap="round" stroke-linejoin="round"/>
</g>
</svg>
